<svg width="750" height="750" fill="none" xmlns="http://www.w3.org/2000/svg"><path fill="#fff" d="M0 0h750v750H0z"/><path fill-rule="evenodd" clip-rule="evenodd" d="M584.982 388.844c1.311 161.425-69.3 279.348-204.294 286.043-98.391 4.88-39.533-149.494-162.846-251.991-78.932-65.608-131.03-236.074 63.508-280.15 194.538-44.075 302.322 84.674 303.632 246.098z" fill="#64FCD9"/><path d="M186.621 623.243c-12.246-22.576-10.246-49.894-7.718-75.452 5.816-58.79 14.769-122.098 55.949-164.458 10.891-11.203 24.185-20.702 39.442-24.076a111.435 111.435 0 0033.571-13.443c2.497-14.622-11.262-26.136-20.874-37.435-10.764-12.652-17.48-28.698-18.936-45.245-.861-9.796-2.918-23.142-12.742-23.559-8.076-.344-14.155-10.088-10.914-17.492 3.242-7.404 14.526-9.546 20.256-3.845-8.174-30.642 9.093-65.996 38.284-78.389-4.76-6.807 5.629-14.965 13.877-13.99 8.249.975 16.233 5.958 24.332 4.117-2.775-4.888 1.672-11.381 7.151-12.633 5.48-1.252 11.103 1.127 16.018 3.854 31.549 17.503 52.399 52.802 52.498 88.882.816-6.586 10.699-8.841 15.532-4.294 4.834 4.546 4.604 12.684 1.172 18.364-3.433 5.679-9.283 9.408-15.073 12.649.146 23.926-8.953 47.792-24.991 65.548-11.67 12.92-28.205 26.625-24.375 43.608 6.208-1.373 12.488 5.789 10.316 11.765 26.618-2.218 51.458 13.848 70.316 32.764 27.645 27.729 47.514 63.131 56.785 101.173 1.619 6.645 11.073 8.457 16.922 4.911 5.849-3.545 8.855-10.25 11.521-16.549l52.653-124.429c-3.393-16.763-.648-34.088 2.103-50.969l9.127-56.023c.829-5.085 4.386-11.795 9.082-9.675 1.622.732 2.528 2.316 3.1 4.061.266.809.459 1.652.62 2.462a164.115 164.115 0 012.697 43.719l18.227-31.18c2.95-5.045 9.062-10.627 13.624-8.539 1.715.336 2.878 2.047 3.123 3.792.65 2.372.099 5.225-.643 7.686a92.127 92.127 0 01-15.885 30.438c9.626 3.283 20.776 8.268 22.461 18.298-1 18.184-14.403 39.06-24.284 49.897 2.267-1.368 3.75 2.703 3.299 5.313-10.839 62.708-37.25 122.665-76.204 172.988-11.495 14.851-24.845 26.344-45.787 28.416-28.54 2.824-47.253-39.273-62.751-38.147 0 0-14.502 74.874-25.002 84.874-10.5 10-79.5 31-100.293 24-20.792-7-41.59 11.719-68.894 9.843-28.298-1.945-68.692-23.6-68.692-23.6z" fill="#fff"/><path d="M620.267 373.109a2.656 2.656 0 01-.489-1.126c-.272-1.535 1.102-3.14 2.66-3.109 1.559.032 2.866 1.692 2.532 3.214-.333 1.522-2.215 2.483-3.644 1.859a2.663 2.663 0 01-1.059-.838zM365.925 212.998c-1.059-.239-1.574-1.567-1.282-2.612.293-1.046 1.153-1.829 2.041-2.455 6.044-4.26 15.24-3.158 20.106 2.411.387.444.768.964.749 1.553-.019.589-.664 1.16-1.186.887-2.739-1.428-5.532-2.876-8.572-3.427-3.04-.552-6.421-.08-8.735 1.967-.923.817-1.918 1.948-3.121 1.676z" fill="#00160A"/><path d="M314.036 212.792c-.332 1.021-1.662 1.394-2.696 1.106-1.034-.289-1.865-1.035-2.741-1.655-2.882-2.039-6.536-2.818-10.058-2.589-3.523.228-6.929 1.408-10.085 2.99-.723.363-1.583-.479-1.539-1.286.045-.808.652-1.464 1.265-1.992 3.282-2.826 7.743-4.117 12.068-3.894 4.326.223 8.507 1.884 12.07 4.347 1.012.7 2.096 1.802 1.716 2.973z" fill="#000"/><path d="M621.753 384.511c-.366.49-.892.835-1.424 1.136-.553.314-1.162.6-1.796.551-.842-.065-1.545-.727-1.892-1.497-.853-1.897.597-4.489 2.676-4.562 2.078-.074 3.682 2.706 2.436 4.372zM436.781 463.575c1.009.463.29 2.094-.74 2.51-1.029.417-2.326.43-2.997 1.315-.478.63-.458 1.493-.411 2.282.097 1.613.199 3.324-.569 4.745-.768 1.421-2.771 2.297-4.052 1.313-1.176-.903-1.071-2.656-1.112-4.138-.041-1.483-.786-3.338-2.267-3.271l-21.756.995c-.92.042-1.966.035-2.592-.639-.858-.923-.276-2.553.807-3.197 1.084-.645 2.429-.592 3.687-.519l15.986.924c.828.047 1.696.088 2.445-.268.749-.355 1.312-1.248 1.009-2.02-.814-2.067.267-4.684 2.303-5.573.707-.309 1.028-1.125 1.203-1.876.175-.752.301-1.569.836-2.125.535-.556 1.659-.591 1.94.127.648 1.658 2.234 2.728 3.349 4.116 1.115 1.387 1.631 3.693.22 4.777.078 1.017 1.784.097 2.711.522z" fill="#00160A"/><path d="M294.95 276.395c-1.012-.062-1.432-1.684-.578-2.229 1.075-.076 1.548 1.764.569 2.216l.009.013zM375.842 251.008c-.291-.524.013-1.279.585-1.456.572-.177 1.25.275 1.306.871-.159.776-1.29 1.128-1.861.579l-.03.006zM372.448 241.015c-.427.846-1.973.61-2.129-.325.313-.426.762-.75 1.264-.913.426.313.754.758.927 1.257l-.062-.019zM351.748 278.71a1.622 1.622 0 011.541.915c-.214.652-1.024 1.104-1.631.784-.608-.32-.549-1.441.125-1.571l-.035-.128zM370.742 279.655c.312-.78 1.764-.482 1.745.357a3.172 3.172 0 01-1.612.855c-.488-.167-.609-.936-.197-1.245l.064.033zM338.046 244.462c-.64.003-1.111.826-.788 1.379.322.553 1.27.549 1.588-.007.318-.556-.16-1.375-.8-1.372zM299.442 254.218c-.516-.387-1.393-.011-1.47.629-.076.64.688 1.212 1.28.958.593-.253.706-1.201.19-1.587zM385.716 255.755c-.616.202-1.316-.488-1.131-1.11.185-.622 1.133-.824 1.564-.339.43.486.129 1.393-.504 1.535l.071-.086zM334.369 274.795c-.239-.599-1.184-.737-1.584-.231-.4.506-.047 1.394.592 1.487.638.093 1.23-.656.992-1.256zM333.36 290.632c-.448.131-.794-.415-.871-.876.442-.838 1.975-.604 2.146.328-.27.408-.793.634-1.276.551l.001-.003zM339.481 289.882c-.695.171-1.674-.169-1.604-.881.415-.428 1.063-.736 1.602-.484.54.252.57 1.245-.018 1.343l.02.022zM370.873 289.555a1.356 1.356 0 01-.532-.895c.3-.431.747-.758 1.25-.911l.889.898a1.948 1.948 0 01-1.608.951l.001-.043zM343.448 246.259c-.508.69-1.831.354-1.948-.495.432-.918 2.152-.509 2.124.506l-.176-.011zM357.531 280.164c-.574.553-1.738-.025-1.644-.817.094-.792 1.361-1.082 1.79-.409a.914.914 0 00-.296 1.053l.15.173zM322.479 244.723c.616-.202 1.316.488 1.131 1.11-.185.622-1.133.825-1.564.339-.431-.486-.129-1.393.504-1.535l-.071.086zM337.53 264.871c.604-.505 1.705-.065 1.796.717-.415.377-.98.687-1.516.525-.536-.161-.791-1.011-.303-1.286l.023.044zM351.26 269.926c.415-.843 1.953-.621 2.112.305-.461.843-1.999.617-2.197-.323l.085.018zM352.108 274.765c.425-.626 1.635-.22 1.596.535a2.107 2.107 0 01-1.217.901c-.497-.267-.699-.969-.421-1.459l.042.023zM372.135 245.368c-.395-.516-1.35-.391-1.599.21-.249.6.336 1.365.981 1.28.645-.085 1.014-.974.618-1.49zM361.871 293.191c.122-.562 1.112-.29 1.173.283.062.572-.401 1.051-.827 1.439-.323-.207-.665-.438-.802-.796-.136-.358.068-.862.451-.872l.005-.054zM314.169 240.528c-.239-.599-1.184-.737-1.584-.231-.399.506-.046 1.394.592 1.487.638.093 1.23-.657.992-1.256zM338.721 293.193c-.326-.519-1.233-.485-1.52.057-.286.543.198 1.311.811 1.288.612-.023 1.036-.827.709-1.345zM298.531 273.88c.345-.389 1.05.084 1.034.605-.015.52-.434.926-.823 1.272-.838-.134-.98-1.569-.185-1.864l-.026-.013zM343.464 284.875l-1.064.659c-.649-.238-.725-1.316-.116-1.643.609-.327 1.465.33 1.306 1.003l-.126-.019zM384.823 274.39c-.198-.614 1.001-.812 1.237-.212.236.6-.241 1.249-.773 1.613a1.403 1.403 0 01-.803-1.397l.339-.004zM370.334 274.95c.389-.561 1.241-.734 1.819-.37.151.841-.914 1.613-1.666 1.209l-.222-.828.069-.011zM313.101 269.252c.616-.203 1.316.487 1.13 1.109-.185.622-1.133.825-1.563.339-.431-.485-.13-1.393.503-1.535l-.07.087zM380.039 236.353c.007-.541.571-1.003 1.102-.903.532.1.89.735.701 1.241-.56.424-1.458.293-1.873-.273l.07-.065zM366.359 264.845c.52-.417 1.448.056 1.416.721-.457.711-1.675.711-2.133.001l.72-.719-.003-.003zM307.366 279.083c.525-.555 1.567-.46 1.983.18-.316.436-.73.883-1.268.908-.538.026-1.046-.673-.674-1.062l-.041-.026zM385.839 284.684a1.393 1.393 0 01-.895.537c-.642-.366-.64-1.509.049-1.774.69-.266 1.435.805.882 1.295l-.036-.058zM299.165 284.976c.504-.351.428-1.257-.128-1.518-.555-.261-1.302.258-1.25.87.051.611.874.998 1.378.648zM385.557 266.344c-.504.514-1.354-.555-.866-1.085.487-.53 1.432-.259 1.867.315l-.898.897-.103-.127zM293.562 241.752c-.138-.874 1.278-1.446 1.785-.72l-1.265 1.662a1.401 1.401 0 01-.576-.928l.056-.014zM298.987 266.344c-.504.514-1.354-.555-.866-1.085.487-.53 1.432-.259 1.867.315l-.899.897-.102-.127zM375.817 241.343c-.43-.41-.346-1.225.159-1.539.505-.315 1.273-.03 1.45.538-.25.573-.887.951-1.51.898l-.099.103zM312.282 245.753c.397-.711 1.589-.752 2.035-.07-.14.997-1.925 1.051-2.126.064l.091.006zM348.608 249.872a2.175 2.175 0 01-.487 1.412c-.56.315-1.31-.39-1.116-1.002.194-.613 1.06-.832 1.593-.473l.01.063zM333.898 284.202c-.181-.578-1.056-.775-1.466-.329-.411.445-.143 1.302.448 1.434.591.133 1.199-.527 1.018-1.105zM352.755 288.969c.261.684-.256 1.545-.982 1.637-.48-.203-.704-.855-.451-1.311.253-.455.926-.609 1.352-.309l.081-.017zM321.955 294.063c0-.657.388-1.298.97-1.604.42.421.722 1.07.465 1.607-.258.537-1.252.553-1.339-.036l-.096.033zM376.023 288.602c.504-.515 1.354.554.866 1.085-.488.53-1.432.258-1.867-.315l.898-.898.103.128zM333.098 245.316c.504-.514 1.355.555.867 1.085-.488.53-1.432.259-1.868-.314l.899-.898.102.127zM303.431 275.489c-.368-.399.134-1.101.676-1.083.542.017.967.465 1.269.916-.429.625-1.448.72-1.984.184l.039-.017zM313.868 258.86c.513-.041.719.764.367 1.14-.353.375-.938.393-1.449.333-.467-.635.346-1.683 1.078-1.39l.004-.083zM339.125 303.98c-.535.683-1.858.332-1.984-.527.457-.811 1.989-.401 1.98.53l.004-.003zM312.561 275.763c-.287-.559.09-1.357.711-1.45.621-.093 1.222.619.99 1.203-.233.583-1.213.651-1.493.089l-.208.158zM332.999 294.599c-.45.145-.774-.43-.895-.888.462-.709 1.677-.717 2.147-.012a2.557 2.557 0 01-1.25.923l-.002-.023zM337.074 255.465c.173-.928 1.675-1.193 2.155-.379-.225.868-1.586 1.132-2.12.41l-.035-.031zM385.84 270.134c-.18-.578-1.056-.775-1.466-.329-.411.445-.143 1.302.448 1.435.591.132 1.199-.527 1.018-1.106zM344 275.672c-.52.417-1.448-.056-1.416-.721.457-.711 1.675-.711 2.133-.001l-.719.719.002.003zM333.714 302.549c.451-.144.775.43.895.888-.462.71-1.676.717-2.146.012a2.559 2.559 0 011.249-.923l.002.023zM391.25 235.63l.709.709c-.419.641-1.502.864-1.924.226-.422-.639.765-1.545 1.113-.863l.102-.072zM370.898 251.29c.465.408 1.332.114 1.453-.492.121-.607-.567-1.211-1.153-1.013-.586.199-.765 1.097-.3 1.505zM342.039 289.577c.186-.433.866-.531 1.168-.17.339.546.031 1.426-.607 1.499-.638.073-1.075-.961-.515-1.276l-.046-.053zM313.154 279.103c.451-.144.775.431.895.889a2.44 2.44 0 01-1.249.915 1.48 1.48 0 01-.543-.909l.9-.902-.003.007zM377.493 265.725c.126.841-1.105 1.487-1.726.906-.265-.842 1.126-1.622 1.596-.875l.13-.031zM328.658 265.043c.413.252.641.773.547 1.247a3.204 3.204 0 01-1.622.182 1.275 1.275 0 01-.176-.902l1.261-.542-.01.015zM352.499 284.132c.187.385.232.838.123 1.252-.49.426-1.409.031-1.438-.618-.028-.648.853-1.122 1.378-.741l-.063.107zM382.206 275.633c-.571.52-1.67.106-1.757-.661.19-.443.757-.681 1.207-.506.449.175.706.735.546 1.19l.004-.023zM333.892 241.035c.33.221.477.68.338 1.052-.497.47-1.493.312-1.664-.35-.171-.661.928-1.223 1.262-.626l.064-.076zM299.314 270.432c.032-.607-.723-1.096-1.264-.82-.541.276-.587 1.175-.078 1.505.51.331 1.311-.079 1.342-.685zM347.408 266.954c-.597-.19-.641-1.179-.089-1.476.552-.296 1.318.183 1.361.808a1.238 1.238 0 01-1.254.539l-.018.129zM298.34 245.303c-.4-.538.846-.998 1.128-.391.283.608-.219 1.294-.764 1.683a1.19 1.19 0 01-.505-1.226l.141-.066zM338.585 284.685a1.4 1.4 0 01-.899.538 1.335 1.335 0 01-.529-.89 2.185 2.185 0 011.233-.889c.491.168.623.936.215 1.258l-.02-.017zM381.151 285.048l-1.263.541a1.558 1.558 0 01-.555-.921c.373-.307.804-.62 1.284-.582.481.039.896.653.578 1.016l-.044-.054zM347.506 288.32l1.232.64a3.279 3.279 0 01-1.676.944 1.343 1.343 0 01-.534-.889c.213-.287.544-.484.898-.533l.08-.162zM299.264 288.648a.92.92 0 01.338 1.053c-.497.469-1.493.311-1.664-.351-.171-.661.928-1.222 1.262-.626l.064-.076zM332.872 270.971c.145.861 1.789.585 1.645-.276-.145-.861-1.789-.585-1.645.276zM351.558 249.197c.776-.083 1.428.906 1.047 1.586-.378.29-.99.196-1.264-.194-.273-.39-.151-.998.25-1.253l-.033-.139zM294.146 270.2c.423-.422 1.231.217 1.043.785-.189.567-.973.748-1.507.479-.359-.411-.142-1.167.38-1.326l.084.062zM332.99 259.971c.436-.622 1.645-.205 1.605.554a1.45 1.45 0 01-1.59.505.842.842 0 01-.023-1.073l.008.014zM376.275 244.833c.294.193.487.531.506.882-.308.774-1.747.494-1.742-.339a1.184 1.184 0 011.241-.536l-.005-.007zM309.064 293.972c.287.559-.09 1.356-.711 1.449-.621.093-1.222-.619-.99-1.202.233-.584 1.213-.652 1.493-.09l.208-.157zM322.174 284.164c.6-.065 1.368-.037 1.597.521a2 2 0 01-1.208.868c-.284-.156-.588-.332-.719-.629-.132-.297.031-.734.356-.744l-.026-.016zM385.66 246.272c.575-.2.745-1.087.284-1.486s-1.314-.102-1.429.496c-.114.599.569 1.19 1.145.99zM362.384 250.062c.642.391.236 1.622-.512 1.554-.427-.145-.685-.664-.542-1.092.143-.428.661-.688 1.089-.547l-.035.085zM343.532 293.365c-.166-.835-1.76-.518-1.594.317.166.834 1.76.517 1.594-.317zM302.621 246.07c.166.835 1.76.518 1.594-.317-.165-.835-1.76-.518-1.594.317zM381.689 289.907c-.391.642-1.622.237-1.554-.512.145-.427.664-.684 1.092-.542.427.143.687.661.546 1.09l-.084-.036zM298.884 239.894c.623-.236 1.349.528 1.081 1.137a1.944 1.944 0 01-1.797.004c.072-.441.361-.841.757-1.048l-.041-.093zM333.363 251.316a1.142 1.142 0 01-.506-.881c.308-.774 1.747-.494 1.742.339-.246.414-.771.64-1.241.536l.005.006zM361.329 280.717c-.278-.503.195-1.228.768-1.185.574.044.935.819.604 1.29-.33.471-1.173.404-1.431-.11l.059.005zM346.528 255.476a1.14 1.14 0 01.881-.506c.774.307.494 1.747-.339 1.741a1.182 1.182 0 01-.536-1.24l-.006.005zM386.455 240.128l.125.909a2.044 2.044 0 01-1.811.006c-.02-.795.984-1.408 1.682-1.028l.004.113zM329.203 298.397c-.379-.759-1.828-.037-1.45.723.378.759 1.828.036 1.45-.723zM362.775 259.777c-.6-.597-1.739.55-1.138 1.146.6.597 1.739-.55 1.138-1.146zM347.96 240.322c-.379-.759-1.829-.036-1.45.723.378.759 1.828.037 1.45-.723zM381.193 280.338c-.366-.789-1.875-.089-1.508.701.366.79 1.875.089 1.508-.701zM297.666 280.168c.371.754 1.81.044 1.438-.709-.371-.753-1.81-.044-1.438.709zM357.339 294.42c-.193.294-.53.487-.881.506-.775-.308-.495-1.747.339-1.742.413.246.64.771.536 1.241l.006-.005zM329.37 270.088c-.372-.754-1.81-.044-1.439.709s1.81.044 1.439-.709zM376.263 254.934c.457.476-.027 1.437-.682 1.353-.475-.137-.737-.757-.505-1.194.232-.437.892-.566 1.272-.25l-.085.091zM342.194 304.165l-.717-.718c.445-.713 1.659-.727 2.12-.025-.23.539-.829.895-1.412.84l.009-.097zM386.742 250.961l-.719.717c-.713-.445-.727-1.659-.024-2.121.538.23.895.829.839 1.412l-.096-.008zM317.671 250.065c.193-.294.53-.487.881-.506.775.308.494 1.747-.339 1.742a1.185 1.185 0 01-.536-1.241l-.006.005zM300.118 251.329c-.447.241-1.08.01-1.267-.462-.187-.473.118-1.075.609-1.204.657.108 1.017 1.017.611 1.545l.047.121zM357.394 255.83c-.004-.84-1.608-.833-1.604.007.003.84 1.607.833 1.604-.007zM348.32 284.69c-.378-.759-1.828-.036-1.449.723.378.759 1.828.036 1.449-.723zM389.191 246.07c.166.835 1.76.518 1.595-.317-.166-.835-1.761-.518-1.595.317zM341.634 270.063c.53-.555 1.576-.454 1.99.191a2.352 2.352 0 01-1.24.905 1.937 1.937 0 01-.789-1.063l.039-.033zM375.127 269.966c.589-.351 1.47.021 1.628.687a1.39 1.39 0 01-1.547.474.835.835 0 01-.025-1.067l-.056-.094zM342.264 265.186c-.212-.387.268-.865.705-.805.438.061.754.445.968.831-.33.68-1.478.704-1.836.04l.163-.066zM389.991 274.777c.391-.642 1.622-.236 1.554.512-.145.427-.664.685-1.092.542-.428-.143-.688-.661-.547-1.089l.085.035zM337.687 269.735c.504-.278 1.228.194 1.185.768-.043.574-.819.934-1.29.604-.471-.331-.404-1.173.11-1.432l-.005.06zM341.842 279.642a.89.89 0 011.103-.015 1.724 1.724 0 01-.938 1.58c-.579-.27-.685-1.196-.183-1.59l.018.025zM384.376 280.379c.6.597 1.739-.55 1.139-1.146-.6-.596-1.739.55-1.139 1.146zM328.822 251.525c-.686-.571.116-1.938.949-1.618.375.642-.183 1.599-.926 1.588l-.023.03zM329.009 245.559c-.372-.753-1.81-.043-1.439.71.372.753 1.81.044 1.439-.71zM293.321 246.63a1.359 1.359 0 01-.533-.893c.295-.427.735-.75 1.23-.904.501.604.083 1.697-.694 1.812l-.003-.015zM375.58 285.685c-.567-.001-.999-.713-.73-1.213.269-.5 1.112-.524 1.403-.037.29.488-.147 1.223-.713 1.193l.04.057zM385.316 235.755c.507.166.953.513 1.239.963-.404.59-1.319.746-1.897.323l.496-1.285.162-.001zM337.686 279.639c.008-.498.541-.916 1.027-.806.486.11.787.716.58 1.17-.562.382-1.427.198-1.784-.381l.177.017zM346.432 260.566c-.264-.504.153-1.218.722-1.235.569-.017 1.028.671.794 1.19a1.327 1.327 0 01-1.433.004l-.083.041zM308.92 240.879c-.174.677-1.153.975-1.676.51-.197-.417.016-.988.45-1.146.434-.158.981.174 1.014.634l.212.002zM302.27 270.834c-.162-.417.074-.945.494-1.101.419-.156.943.089 1.093.511-.136.661-1.025 1.028-1.587.656v-.066zM317.847 280.537a1.43 1.43 0 01-.54-.9l.892-.881c.77.329.487 1.758-.35 1.77l-.002.011zM303.409 285.536c-.57.209-1.055-.721-.634-1.159.421-.439 1.242-.217 1.535.316l-.892.896-.009-.053zM302.695 241.944c-.42-.516.054-1.447.719-1.411.415.247.644.771.544 1.242a1.96 1.96 0 01-1.259.154l-.004.015zM371.937 265.391c.509.138.298 1.02-.218 1.134-.515.114-1.008-.237-1.412-.576a1.496 1.496 0 011.63-.522v-.036zM380.534 265.86l-.842-.617c.442-.741 1.697-.764 2.165-.04a1.206 1.206 0 01-1.246.537l-.077.12zM389.177 241.709c-.317-.442.101-1.164.645-1.145.543.02.918.713.669 1.197-.41.285-.997.288-1.409.006l.095-.058zM357.346 270.982c-.518.418-1.447-.054-1.414-.72.173-.299.51-.496.856-.498.485.173.789.744.661 1.243l-.103-.025zM313.603 288.003l.847.644a3.603 3.603 0 01-1.656.899c-.424-.51.063-1.442.724-1.385l.085-.158zM309.003 250.062c-.378-.759-1.828-.036-1.45.723.379.759 1.829.036 1.45-.723zM302.518 289.017c.216-.286.545-.484.9-.539.285.216.483.545.54.898l-.898.898a1.25 1.25 0 01-.537-1.257h-.005zM337.172 241.379c.503.617 1.682-.344 1.179-.961-.503-.618-1.682.344-1.179.961zM380.059 260.53c-.043-.828 1.386-1.159 1.711-.396-.106.761-1.303 1.048-1.742.418l.031-.022zM389.993 270.802c-.294.56-1.368.06-1.129-.526.06-.454.632-.755 1.04-.548.409.208.503.847.171 1.163l-.082-.089zM343.087 255.597c-.57.209-1.055-.721-.634-1.159.421-.438 1.242-.216 1.535.316l-.892.896-.009-.053zM308.482 288.546c.386-.221.874.263.813.704-.061.441-.451.759-.839.977-.651-.317-.624-1.444.041-1.729l-.015.048zM322.371 242.131c-.183-.761.798-1.639 1.365-1.099-.035.429-.087.896-.388 1.203-.302.308-.942.286-1.063-.127l.086.023zM358.074 298.023c.044.828-1.385 1.159-1.71.395.105-.76 1.303-1.047 1.741-.417l-.031.022zM318.386 288.641c-.824.112-.609 1.684.214 1.572.823-.112.609-1.685-.214-1.572zM356.431 288.486c.713.456.723 1.675.017 2.143-.711-.465-.714-1.685-.005-2.153l-.012.01zM323.429 255.465c-.57.386-1.444.204-1.811-.378.375-.303.806-.617 1.287-.579.481.039.896.656.575 1.017l-.051-.06zM338.412 299.298c-.295.56-1.369.06-1.129-.526.06-.454.631-.755 1.04-.548.408.208.502.847.171 1.163l-.082-.089zM294.392 261.008c-.571.209-1.056-.721-.635-1.16.421-.438 1.242-.216 1.536.316l-.893.896-.008-.052zM372.319 236.896c-.295.56-1.369.059-1.129-.527.06-.454.631-.755 1.039-.547.409.208.503.846.172 1.163l-.082-.089zM351.884 245.39a1.404 1.404 0 01-.509 1.617c-.332-.409-.685-.898-.572-1.412.112-.514 1-.719 1.124-.208l-.043.003zM338.408 274.765c.419.518-.053 1.448-.719 1.414a1.014 1.014 0 01-.498-.856c.173-.485.744-.788 1.243-.661l-.026.103zM342.081 241.586c-.049.786 1.452.88 1.501.095.049-.786-1.452-.88-1.501-.095zM366.9 254.569c.287.211.484.542.532.896a1.232 1.232 0 01-1.249.541c-.428-.51.056-1.447.719-1.392l-.002-.045zM347.603 303.442a1.408 1.408 0 01-.9.538 1.395 1.395 0 01-.537-.897c.273-.326.665-.62 1.085-.556.421.065.698.684.355.935l-.003-.02zM381.505 255.098c-.365.565-1.214.744-1.776.375-.257-.385.149-.938.61-.973.461-.035.877.272 1.192.611l-.026-.013zM312.714 251.069c-.351-.423.053-1.183.603-1.16.549.023.902.758.605 1.22-.298.462-1.07.474-1.411.044l.203-.104zM328.825 294.067a.88.88 0 01-.154.86c-.554.258-1.335-.265-1.197-.86.138-.595 1.236-.576 1.267.034l.084-.034zM375.933 280.125c-.403-.035-.432-.695-.099-.925.333-.229.78-.153 1.175-.068.188.251.255.588.176.892-.39.183-.841.234-1.262.142l.01-.041zM337.685 249.878l1.084-.001c.17.267.234.599.175.91-.406.162-.875.322-1.264.123-.39-.199-.416-.932.019-.981l-.014-.051zM358.131 250.283c-.281-.736-1.685-.199-1.404.537.281.735 1.685.198 1.404-.537zM380.089 251.508c-.091-.407-.004-.893.341-1.128.345-.235.939-.023.941.395-.065.363-.15.761-.445.983-.295.221-.848.067-.833-.301l-.004.051zM294.473 251.852c-.568.192-1.208-.484-.986-1.04.223-.556 1.152-.605 1.431-.075l-.523.941.078.174zM316.945 299.122c-.06-.664.881-1.152 1.389-.721.22.365.069.901-.309 1.099-.378.197-.904.015-1.079-.374l-.001-.004zM362.47 275.752c.576-.528-.433-1.629-1.01-1.1-.576.528.434 1.629 1.01 1.1zM333.715 281.22c-.496.158-1-.482-.789-.958.21-.477.92-.593 1.327-.268a1.132 1.132 0 01-.546 1.243l.008-.017zM365.943 237.855c-.542-.53.266-1.627.933-1.266.52.513-.254 1.57-.9 1.229l-.033.037zM334.077 255.272c-.605.068-1.379.027-1.609-.538a1.5 1.5 0 011.602-.498.846.846 0 01.023 1.074l-.016-.038zM361.287 245.312c.612-.253 1.348.517 1.066 1.117-.288.305-.834.308-1.126.007-.292-.3-.273-.846.04-1.125l.02.001zM356.263 240.682c.216-.286.546-.484.9-.538.286.214.484.544.537.897a1.398 1.398 0 01-.897.537 1.376 1.376 0 01-.534-.899l-.006.003zM334.023 265.634c-.387.66-1.534.624-1.878-.059.328-.684 1.481-.716 1.847-.052l.031.111zM308.457 284.119c.388-.051.68.44.554.809-.127.37-.52.587-.905.656a1.398 1.398 0 01-.535-.897c.213-.287.544-.484.898-.534l-.012-.034zM348.239 294.226l.049.845c-.349.499-1.306.23-1.344-.377-.038-.608.879-.993 1.287-.542l.008.074zM366.901 279.098c.286.215.484.545.538.899a1.394 1.394 0 01-.897.537 1.398 1.398 0 01-.537-.897c.214-.287.545-.484.899-.534l-.003-.005zM322.391 299.475c-.132-.399-.021-.898.336-1.121.357-.222.93-.025.99.392l-.458.934-.915-.105.047-.1zM348.358 246.093c.042.483-.474.926-.945.813-.472-.114-.729-.744-.471-1.155.396-.38 1.174-.165 1.319.365l.097-.023zM307.715 275.107c.36-.523 1.381-.07 1.235.547a.948.948 0 01-.835.523c-.398-.153-.595-.687-.39-1.061l-.01-.009zM380.641 244.821c.442.686-.426 1.727-1.181 1.416-.104-.677.467-1.38 1.152-1.417l.029.001zM302.502 260.163c-.022-.675.907-1.151 1.442-.739.278.747-1.002 1.414-1.455.758l.013-.019zM389.261 259.613a1.01 1.01 0 011.086-.34c.178.249.242.576.17.873l-.891.521c-.394-.16-.584-.691-.381-1.064l.016.01zM352.315 240.649c.523.36.07 1.381-.547 1.235a.948.948 0 01-.523-.835c.153-.398.687-.595 1.061-.39l.009-.01zM308.669 245.699c.523.36.071 1.381-.547 1.235a.948.948 0 01-.522-.835c.152-.398.686-.595 1.061-.39l.008-.01zM353.009 259.436c-.388.56-1.239.733-1.815.368-.011-.851 1.462-1.141 1.774-.349l.041-.019zM321.996 280.36c.216-.286.546-.484.9-.538.286.214.483.544.537.897a1.4 1.4 0 01-.898.537 1.374 1.374 0 01-.533-.899l-.006.003zM329.207 255.829a1.412 1.412 0 01-.9.538 1.4 1.4 0 01-.537-.898c.215-.286.544-.483.898-.536.287.213.483.545.533.899l.006-.003zM380.108 270.643c.284-.66 1.401-.686 1.716-.04-.32.691-1.481.731-1.848.064l.132-.024zM352.281 303.423l-.897.547a1.31 1.31 0 01-.521-.884 1.243 1.243 0 011.253-.541c.173.261.234.592.166.897l-.001-.019zM351.573 293.707c-.167-.402.489-.6.92-.537.187.387.241.837.149 1.257a1.194 1.194 0 01-.892.175 1.173 1.173 0 01-.165-.895h-.012zM321.996 251.142c.216-.286.546-.483.9-.538a1.4 1.4 0 01.537.898 1.395 1.395 0 01-.898.536 1.372 1.372 0 01-.533-.899l-.006.003zM371.227 259.619c.397-.176.602.483.537.913a2.001 2.001 0 01-1.256.161 1.224 1.224 0 01-.174-.898c.26-.172.591-.233.895-.165l-.002-.011zM308.99 255.474c.091.3.034.641-.15.896-.312.074-.654.01-.918-.172l.009-1.086c.304-.391 1.07-.138 1.081.358l-.022.004zM323.649 271.182c-.36.522-1.381.07-1.235-.548a.95.95 0 01.835-.522c.398.152.595.686.39 1.061l.01.009zM314.043 254.436c.351.077.481.614.204.843-.6.061-1.365.029-1.594-.528.251-.497.957-.696 1.432-.403l-.042.088zM333.716 298.576c.286.215.484.545.538.9a1.398 1.398 0 01-.897.537 1.4 1.4 0 01-.537-.898c.214-.287.545-.484.899-.534l-.003-.005zM346.518 269.889c.458-.333 1.202-.132 1.43.386a1.498 1.498 0 01-1.602.496c-.242-.244-.13-.73.195-.844l-.023-.038zM318.599 266.492c-.36.523-1.381.071-1.235-.547a.948.948 0 01.835-.522c.399.152.595.686.39 1.06l.01.009zM347.442 279.445c-.392-.602-1.542.147-1.15.749.392.602 1.542-.147 1.15-.749zM308.898 270.443c-.079.754-1.392.892-1.626.17.259-.581 1.189-.688 1.573-.181l.053.011zM342.397 299.601c-.779-.295-.499-1.745.335-1.727.384.556.208 1.418-.363 1.78l.028-.053zM303.704 255.399l-.826-.604c.287-.693 1.463-.718 1.779-.039a1.282 1.282 0 01-.881.524l-.072.119zM356.619 283.957c.529.361.427 1.319-.166 1.561-.716-.238-.587-1.537.162-1.629l.004.068zM380.231 241.955c.392.602 1.542-.147 1.15-.749-.392-.603-1.542.146-1.15.749zM346.561 298.056c.289-.662 1.412-.682 1.724-.031-.304.66-1.438.654-1.734-.01l.01.041zM328.016 240.966l.604-.825c.693.286.719 1.463.039 1.779a1.286 1.286 0 01-.523-.881l-.12-.073zM371.253 255.243c-.46-.074-.403-.869.037-1.026.439-.158.918.149 1.189.53a1.216 1.216 0 01-1.246.533l.02-.037zM366.04 270.278c.229-.51.951-.718 1.416-.407.14.394-.115.881-.519.989-.404.109-.869-.184-.945-.596l.048.014zM323.235 264.713c.46.075.403.869-.036 1.027-.44.157-.919-.15-1.189-.53a1.214 1.214 0 011.246-.534l-.021.037zM361.474 271.172c.392.602 1.543-.147 1.15-.749-.392-.602-1.542.147-1.15.749zM329.581 289.755c.602-.393-.147-1.543-.749-1.15-.602.392.147 1.542.749 1.15zM375.846 260.81l-.826-.604c.286-.693 1.463-.719 1.779-.039a1.29 1.29 0 01-.881.524l-.072.119zM372.095 270.236c-.289.661-1.412.681-1.724.031.303-.66 1.437-.654 1.734.01l-.01-.041zM386.162 260.136c-.289.661-1.412.681-1.724.031.304-.66 1.438-.654 1.734.01l-.01-.041zM316.801 284.98l.591-1.238c.393.269.749.719.636 1.182-.112.463-.928.595-1.023.128l-.204-.072zM390.642 255.433l-1.238-.592c.269-.393.719-.748 1.182-.636.463.112.595.928.128 1.023l-.072.205zM366.189 288.491c.317-.086.671-.024.939.165a2.107 2.107 0 01-.945 1.235c-.56-.208-.551-1.179.013-1.377l-.007-.023zM293.659 265.634c-.226-.82 1.354-1.233 1.558-.408-.228.494-.937.684-1.382.371l-.176.037zM293.701 255.604c-.461-.075-.403-.869.036-1.026.439-.158.919.149 1.189.53a1.215 1.215 0 01-1.246.533l.021-.037zM362.424 283.963c-.02.362-.246.706-.57.869-.665-.305-.658-1.446.01-1.743.285.204.479.532.521.88l.039-.006zM303.425 281.317c-.545.007-.628-.783-.519-1.317a.776.776 0 011.048-.006 1.136 1.136 0 01-.547 1.244l.018.079zM367.396 284.699c-.177-.705-1.524-.368-1.348.337.177.705 1.524.368 1.348-.337zM366.697 246.768c-.389.219-.811-.412-.583-.796.229-.383.749-.468 1.194-.429.181.47-.123 1.065-.61 1.193l-.001.032zM352.091 254.613c.461.075.403.869-.036 1.027-.439.157-.919-.15-1.189-.53a1.212 1.212 0 011.246-.533l-.021.036zM299.47 259.733c.226.82-1.354 1.233-1.558.408.228-.493.937-.684 1.382-.371l.176-.037zM323.605 274.769c.365.404.181 1.156-.329 1.347-.804-.183-.412-1.726.383-1.502l-.054.155zM338.114 259.247l.149.92c-.457.342-1.212.147-1.446-.374a1.16 1.16 0 011.229-.523l.068-.023zM312.989 294.787c-.743.177-.848-1.181-.202-1.588.585.27.704 1.199.205 1.607l-.003-.019zM329.367 303.309c.46.075.403.869-.036 1.027-.439.157-.919-.15-1.189-.53a1.214 1.214 0 011.246-.534l-.021.037zM366.704 259.442c.088.3.033.638-.147.894-.473.109-1.019-.103-1.244-.533.253-.498.959-.698 1.435-.406l-.044.045zM365.282 241.046c.201-.292.537-.487.89-.517.552.227.556 1.174.006 1.405l-.899-.893.003.005zM308.286 260.146c-.404.365-1.157.181-1.348-.328.184-.805 1.726-.412 1.503.382l-.155-.054zM348.166 275.244c.225.82-1.354 1.233-1.559.408.229-.494.938-.684 1.382-.372l.177-.036zM355.881 245.33c.391-.186.917.009 1.092.405l-.886.882c-.485-.182-.608-.942-.204-1.266l-.002-.021zM360.926 241.804c-.358-.25-.364-.866-.009-1.122.354-.256.937-.058 1.062.361a1.534 1.534 0 01-1.03.771l-.023-.01zM362.089 289.377c-.038.501-.803.741-1.12.351-.163-.474.14-1.008.568-1.27l.552.884v.035zM395.033 250.942c-.3.089-.638.033-.894-.146-.109-.473.103-1.02.533-1.244.498.253.698.958.406 1.435l-.045-.045zM342.009 250.965c-.338-.447-.143-1.192.372-1.415.407.25.629.768.529 1.234-.26.171-.59.232-.894.165l-.007.016zM365.891 250.345l.61-.835c.443.227.691.777.569 1.259-.293.4-1.07.143-1.068-.352l-.111-.072zM371.588 294.611c-.339-.448-.144-1.192.371-1.415.407.249.629.767.529 1.234-.26.171-.59.232-.894.165l-.006.016zM317.483 260.353c-.231-.317-.101-.83.253-1 .354-.169.835.052.937.431-.145.492-.731.804-1.221.649l.031-.08zM313.225 297.349l1.23.587a1.22 1.22 0 01-1.291.632.898.898 0 01-.029-1.096l.09-.123zM352.545 298.563l.138.909c-.258.182-.6.238-.902.148-.527-.413.147-1.446.737-1.13l.027.073zM367.114 294.425a1.082 1.082 0 01-.573.873 1.094 1.094 0 01-.523-1.226c.295-.396 1.067-.136 1.063.357l.033-.004zM357.164 260.338l-.712.67c-.495-.102-.686-.857-.299-1.181.388-.325 1.098-.005 1.111.5l-.1.011zM390.5 250.428c.21.55-.275 1.237-.863 1.223-.504-.534.251-1.58.917-1.27l-.054.047zM390.353 266.111c-.403.169-.603-.491-.539-.924.455-.325 1.19-.12 1.409.395-.203.284-.53.478-.877.519l.007.01zM303.949 250.778c.09.536-.603 1.013-1.072.738-.017-.392-.012-.841.282-1.101.293-.261.918 0 .774.365l.016-.002zM361.136 299.293a1.23 1.23 0 01-.517-.89c.227-.552 1.174-.556 1.406-.006l-.894.899.005-.003zM328.308 285.226a1.407 1.407 0 01-.538-.9c.216-.286.545-.483.899-.539.349.441.142 1.197-.382 1.399l.021.04zM361.111 266.49c-.282-.457.177-1.153.708-1.075.533.412-.133 1.454-.73 1.144l.022-.069zM304.441 265.13c.343.605-.729 1.318-1.154.769-.37-.509.616-1.153 1.033-.682l.121-.087zM375.924 236.555a.847.847 0 01.862.166c.243.448-.259 1.079-.751.942-.492-.136-.597-.935-.158-1.194l.047.086zM371.973 283.766c.282.457-.177 1.154-.708 1.075-.533-.411.133-1.454.73-1.144l-.022.069zM356.616 266.629c-.473.22-.769-.543-.708-1.061.254-.303.801-.274 1.022.054.221.328.044.846-.331.969l.017.038zM323.633 259.966c.221.329.073.842-.288 1.003-.362.162-.843-.072-.939-.456.23-.414.756-.638 1.214-.517l.013-.03zM328.859 260.588l-.91.145c-.303-.447.174-1.162.703-1.055.355.078.484.623.202.853l.005.057zM317.86 246.643c-.648.163-.562-1.018-.026-1.417.567.19.565 1.174-.003 1.362l.029.055zM313.178 284.126c.282.458-.177 1.154-.709 1.075-.532-.411.133-1.453.73-1.143l-.021.068zM307.444 266.215l.59-.745c.452.018.757.62.504.995s-.925.318-1.111-.094l.017-.156zM361.458 254.947c-.2-.382.002-.916.404-1.072.288.193.481.522.507.868-.121.345-.637.462-.895.204h-.016zM312.402 266.129c-.2-.382.001-.917.403-1.072.289.192.482.522.507.868-.12.344-.637.462-.894.204h-.016zM395.111 245.543l.142.949-.943.186c-.297-.47.169-1.196.72-1.122l.081-.013zM318.24 270.061c.259.484-.215 1.169-.759 1.099a1.282 1.282 0 01-.173-.904 1.18 1.18 0 01.898-.166l.034-.029zM317.506 255.96c-.567-.169-.583-1.15-.022-1.338.563.186.549 1.169-.018 1.34l.04-.002zM318.4 294.418a.788.788 0 01-.543.804c-.441-.055-.693-.667-.418-1.017.276-.349.93-.246 1.086.171l-.125.042zM322.501 289.936c-.199-.382.002-.917.404-1.072.289.192.481.522.507.868-.12.344-.637.462-.894.203l-.017.001zM317.641 240.686c.037-.541.677-1.083 1.091-.733.056.353.058.764-.203 1.008-.261.245-.827.062-.755-.288l-.133.013zM366.718 275.995c-.343.17-.762-.243-.687-.618.075-.375.483-.61.865-.614.315.364.229 1-.173 1.266l-.005-.034zM328.001 279.558l.597-.729c.427-.018.755.536.534.902-.222.366-.865.332-1.047-.055l-.084-.118zM357.16 276.194a1.205 1.205 0 01-.916-.139c.003-.484.425-.997.9-.896.474.101.472.997-.012.971l.028.064zM352.455 264.724c.408.112.617.666.385 1.02a1.2 1.2 0 01-.997-.212l.571-.901.041.093zM317.647 274.522c.588-.022.3.946-.166 1.306-.307-.361-.212-.987.189-1.24l-.023-.066zM375.732 274.586c.47.227.347 1.084-.168 1.17-.613-.12-.431-1.279.188-1.206l-.02.036zM341.78 260.28c-.294-.161-.11-.671.216-.749.326-.078.65.11.933.29-.015.494-.798.723-1.077.315l-.072.144zM329.029 275.842c-.227.47-1.084.346-1.169-.169.12-.612 1.278-.431 1.206.189l-.037-.02zM303.271 293.359c.133-.424.865-.435 1.011-.016-.144.421-.879.41-1.01-.014l-.001.03zM322.749 303.098c.133-.424.865-.435 1.011-.016-.144.421-.878.41-1.01-.014l-.001.03zM394.8 241.018c-.101.403-.645.618-.993.391-.173-.324-.039-.795.304-.926.344-.131.786.203.704.561l-.015-.026zM385.22 290.042l-.729-.597c-.018-.427.536-.755.902-.533.366.221.332.864-.055 1.046l-.118.084zM375.742 294.799c-.355-.157-.224-.815.164-.823.517.016.243 1.087-.151.753l-.013.07z" fill="#FFB61D"/><path d="M324.207 634a277.994 277.994 0 01-56.61-72.309c-6.195-11.397-11.731-24.202-9.412-36.964 4.337-23.872-4.627-47.86-11.688-71.073-7.062-23.213-12.064-49.426-.706-70.866-17.918 16.523-25.104 41.56-28.945 65.629-8.905 55.801-3.893 113.768 14.458 167.212-21.548-39.444-22.395-86.636-20.351-131.535 1.59-34.938 5.497-72.143 27.443-99.373-33.787 27.555-44.067 74.069-51.523 117.026-7 40.335-13.231 82.669-.252 121.496-12.246-22.576-10.246-49.894-7.718-75.452 5.816-58.79 14.769-122.098 55.949-164.458 10.891-11.203 24.185-20.702 39.442-24.076a111.435 111.435 0 0033.571-13.443c2.497-14.622-11.262-26.136-20.874-37.435-10.764-12.652-17.48-28.698-18.936-45.245-.861-9.796-2.918-23.142-12.742-23.559-8.076-.344-14.155-10.088-10.914-17.492 3.242-7.404 14.526-9.546 20.256-3.845-8.174-30.642 9.093-65.996 38.284-78.389-4.76-6.807 5.629-14.965 13.877-13.99 8.249.975 16.233 5.958 24.332 4.117-2.775-4.888 1.672-11.381 7.151-12.633 5.48-1.252 11.103 1.127 16.018 3.854 31.549 17.503 52.399 52.802 52.498 88.882.816-6.586 10.699-8.841 15.532-4.294 4.834 4.546 4.604 12.684 1.172 18.364-3.433 5.679-9.283 9.408-15.073 12.649.146 23.926-8.953 47.792-24.991 65.548-11.67 12.92-28.205 26.625-24.375 43.608 6.208-1.373 12.488 5.789 10.316 11.765 26.618-2.218 51.458 13.848 70.316 32.764 27.645 27.729 47.514 63.131 56.785 101.173 1.619 6.645 11.073 8.457 16.922 4.911 5.849-3.545 8.855-10.25 11.521-16.549l52.653-124.429c-5.875-36.099-.648-34.088 2.103-50.969 7.522-19.62 6.085-37.348 9.127-56.023.829-5.085 4.386-11.795 9.082-9.675 2.375 1.072 3.213 3.967 3.72 6.523a164.115 164.115 0 012.697 43.719l18.227-31.18c3.325-5.688 10.67-12.057 15.282-7.352 2.533 2.585 1.867 6.826.822 10.291a92.127 92.127 0 01-15.885 30.438c9.626 3.283 20.776 8.268 22.461 18.298.699 4.161-.48 8.395-1.876 12.376a109.862 109.862 0 01-22.408 37.521c2.267-1.368 3.75 2.703 3.299 5.313-10.839 62.708-37.25 122.665-76.204 172.988-11.495 14.851-27.089 30.168-45.787 28.416-11.704-1.096-21.594-8.776-30.751-16.147l-29.58-23.809c22.952 5.127 35.734 33.759 59.082 36.586 18.983 2.298 34.918-13.601 46.391-28.899 37.437-49.915 63.005-108.671 74.017-170.086-14.971 2.512-30.554 1.286-44.947-3.537a836.605 836.605 0 01-53.708 128.653c-3.706 7.137-10.298 15.432-17.91 12.837-3.407-1.162-5.709-4.289-7.628-7.334-19.186-30.429-23.644-71.006-51.627-93.612 11.278 69.944-6.503 141.069-26.63 208.997a730.787 730.787 0 0027.919-162.653c.717-12.636 1.075-25.55-2.501-37.691-3.576-12.141-11.74-23.565-23.59-28.01-7.718 50.198-52.925 87.539-64.365 137.022A499.429 499.429 0 01324.207 634zm46.47-137.415c17.199-32.697 39.747-62.629 53.747-96.818 3.183-7.774 5.808-17.013 1.481-24.212-1.562-2.599-3.891-4.633-6.18-6.621-3.621-3.144-7.591-6.442-12.37-6.83-6.342-.516-11.842 4.227-15.922 9.11-9.894 11.839-16.283 26.149-22.358 40.332-14.533 33.925-28.043 68.452-36.54 104.367-8.496 35.915-11.884 73.404-6.041 109.845 7.399-33.419 32.278-61.736 35.688-95.794.562-5.609.524-11.303 1.745-16.807 1.295-5.841 3.964-11.277 6.75-16.572zm34.048-308.588c-2.329-4.49-5.235-8.785-9.209-11.915-8.852-6.97-21.316-6.989-32.391-4.917a107.025 107.025 0 00-20.694 6.084c-1.741.709-3.59 1.481-5.44 1.145-1.85-.337-3.514-2.331-2.756-4.052.146-.331.372-.638.411-.998.108-1.007-1.172-1.511-2.175-1.655-15.242-2.198-31.472.372-44.285 8.914-12.814 8.542-21.684 23.436-21.21 38.828.107 3.454 2.704 6.28 5.311 8.549a68.047 68.047 0 0013.062 8.925c2.101 1.101 4.984 1.974 6.59.228 3.186-3.463 8.479-3.732 13.184-3.631 16.352.35 32.793 2.236 49.003.058 9.876-1.328 19.494-4.146 29.332-5.732 3.013-.486 6.124-.852 9.094-.148 2.97.703 5.806 2.679 6.752 5.581a97.585 97.585 0 0010.279-13.935c.902-1.482 1.777-3.022 2.111-4.724.296-1.51.15-3.07-.051-4.596a66.84 66.84 0 00-6.918-22.009zm-24.526 107.52c5.771-2.531 9.014-8.668 11.197-14.58 5.203-14.089 6.876-29.467 4.823-44.345-.206-1.496-.482-3.063-1.436-4.233-1.511-1.854-4.212-2.142-6.602-2.044-5.62.229-11.088 1.777-16.559 3.083-11.52 2.75-23.321 4.459-35.164 4.499-11.704.039-23.388-1.548-35.083-1.094-2.328.091-4.789.309-6.679 1.672-2.995 2.161-3.522 6.347-3.641 10.039a141.228 141.228 0 004.896 41.682c.222.814.472 1.663 1.064 2.264.638.648 1.564.9 2.437 1.155 14.13 4.138 26.352 15.989 41.04 14.966 10.895-.758 20.055-8.572 30.72-10.927 3.014-.665 6.161-.898 8.987-2.137zM259.41 527.355c-.877 12.734 6.328 24.46 13.257 35.179l21.043 32.554c-10.345-34.429-15.225-70.262-18.544-106.058-3.466-37.377-5.186-75.72 5.034-111.839 1.622-5.731 3.565-11.437 6.703-16.5-9.408-.245-19.417.476-27.092 5.923-4.989 3.541-8.53 8.796-11.153 14.323-8.106 17.08-8.126 37.013-4.543 55.576 3.584 18.563 10.536 36.277 15.983 54.381 1.583 5.261 3.053 10.662 2.861 16.152-.241 6.879-3.077 13.443-3.549 20.309zm45.696-228.201c-4.849-1.862-10.731-3.382-12.659-8.205-.906-2.265-.685-4.798-.946-7.223-.261-2.425-1.278-5.085-3.546-5.981a85.916 85.916 0 01-15.619-8.112c2.436 14.325 8.923 27.939 18.514 38.855 4.803 5.467 10.372 10.282 14.628 16.185 4.257 5.903 7.151 13.33 5.584 20.437-.5 2.264 2.754 3.25 5.072 3.195 15.401-.364 30.8-.794 46.197-1.29 2.609-.085 4.148-3.132 4.087-5.742-.061-2.609-1.112-5.132-1.077-7.742.05-3.836 2.402-7.223 4.796-10.221 7.09-8.881 15.372-16.74 22.743-25.391 7.371-8.65 13.938-18.341 16.741-29.354-4.878 8.227-15.169 12.469-18.985 21.24-2.166 4.978-7.404 7.907-12.591 9.508-5.188 1.6-10.686 2.25-15.637 4.477-2.539 1.142-4.88 2.676-7.366 3.928-8.733 4.398-19.257 5.096-28.495 1.889-7.52-2.61-14.011-7.599-21.441-10.453zm308.398 21.758c5.35-.318 11.814 1.764 15.358-2.257.811-.92 1.347-2.187 1.053-3.379-.401-1.622-2.107-2.514-3.661-3.127-9.924-3.92-21.03-4.782-31.44-2.441-3.625.815-5.744 4.162-6.538 7.792-.794 3.63-.601 7.56 0 11.226l4.584 27.94c.069.42.143.854.379 1.208.354.531.997.777 1.602.983a64.069 64.069 0 0023.457 3.35c3.156-.141 6.569-.64 8.784-2.893 10.841-11.023 18.767-24.889 22.763-39.824-2.176 1.946-4.97 3.462-7.881 3.237-2.911-.225-5.74-2.702-5.55-5.616-5.581 4.301-12.154 8.852-19.054 7.424-5.275-1.092-11.098 1.245-14.155 5.681-1.863-.49-1.146-3.373.21-4.742a15.663 15.663 0 0110.089-4.562zm-320.433 82.9c-3.654.569-7.29 1.25-10.897 2.064-2.536.573-5.555 1.738-5.884 4.317a134.036 134.036 0 00-1.063 15.507c27.583-6.506 56.87-5.631 84.015 2.509l8.653-20.272c-24.288-6.578-49.961-7.993-74.824-4.125zm101.904-40.534a24.367 24.367 0 00-14.346-2.619c-.967.122-2.053.39-2.519 1.246-1.86 3.418-5.926 4.896-9.688 5.892-18.928 5.013-38.914 4.9-58.315 2.256-3.606-.492-7.262-1.088-10.539-2.673s-6.174-4.311-7.146-7.819c-2.583-.039-4.134 2.783-5.052 5.197a227.367 227.367 0 00-7.183 22.294c31.455-7.125 64.697-6.204 95.709 2.653a33.844 33.844 0 006.405-12.35c.583-2.101 2.195-3.733 3.747-5.265l8.927-8.812zM343.6 469.707a162.67 162.67 0 007.721-20.724 254 254 0 00-73.37-1.39c-1.033.131-2.179.332-2.803 1.165-.549.733-.521 1.733-.468 2.647l.778 13.606c.07 1.218.651 2.865 1.847 2.619 21.854-4.506 44.766-3.788 66.295 2.077zm302.08-208.143c.694-1.721 1.36-3.531 1.209-5.38-.151-1.849-1.356-3.744-3.179-4.087-1.137-.214-2.309.198-3.294.806-2.413 1.489-3.925 4.044-5.343 6.5l-19.253 33.358c-.832 1.441-3.237.995-4.149-.397-.913-1.392-.791-3.193-.662-4.852a155.285 155.285 0 00-2.399-41.651c-.166-.85-.352-1.729-.863-2.428-1.482-2.026-4.941-1.322-6.433.696-1.492 2.019-1.579 4.715-1.599 7.226-.148 19.123.032 38.925-7.693 56.419 7.847-3.046 16.68-3.485 24.79-1.234 1.159.322 2.36.701 3.542.477 1.182-.223 2.305-1.3 2.099-2.485-.774-4.441 2.414-8.478 5.216-12.009a124.932 124.932 0 0018.011-30.959zm-269.067 91.563c-.534-2.192-2.499-4.205-4.746-4.004a539.785 539.785 0 01-68.988 1.747c-1.362-.053-2.796-.096-4.004.535-.852.445-1.519 1.199-1.971 2.048-1.836 3.446.028 7.939 3.157 10.274 3.129 2.334 7.16 3.016 11.033 3.505 16.91 2.135 34.143 1.91 50.929-1.039 3.625-.637 7.343-1.449 10.343-3.58 3-2.131 5.119-5.911 4.247-9.486zm-40.874 140.396c.133-.458.26-.978.019-1.39-.258-.439-.822-.569-1.324-.654-18.226-3.092-36.881-1.573-55.305-.046-.521.043-1.114.126-1.407.559-.228.338-.195.781-.154 1.187l1.602 15.692c.102 1.004.527 2.306 1.536 2.255a253.241 253.241 0 0148.004 2.116c1.009.142 1.617-1.062 1.901-2.041l5.128-17.678zm-10.447 47.062c.079-.752.124-1.61-.397-2.158-.398-.42-1.016-.528-1.59-.608-12.471-1.737-25.143-.504-37.674.731-.626.062-1.351.185-1.653.737-.207.379-.142.843-.07 1.269l2.522 15.034c.121.721.502 1.646 1.225 1.539 11.953-1.782 24.673-2.306 35.605 2.845l2.032-19.389zm-50.136-272.891a58.09 58.09 0 0014.674 7.274 93.126 93.126 0 01-1.305-31.88c.178-1.34-1.331-2.205-2.577-2.73a55.433 55.433 0 01-19.238-13.551 285.811 285.811 0 003.577 32.993c.274 1.637.581 3.319 1.467 4.723.834 1.32 2.115 2.287 3.402 3.171zm120.362 11.224c4.85-3.942 9.099-8.59 12.858-13.583 2.029-2.693 3.94-5.531 5.064-8.71 1.13-3.197 1.423-6.623 1.557-10.011a115.39 115.39 0 00-2.012-26.485l-11.684 15.873c-.597.812-1.209 1.654-1.439 2.636-.185.786-.11 1.608-.044 2.413a98.897 98.897 0 01-4.3 37.867zm-75.241 323.571c.853.172 1.243-1.019 1.264-1.889l.371-15.598c.011-.468.018-.957-.184-1.379-.374-.78-1.313-1.078-2.15-1.295-4.733-1.231-9.534-2.47-14.424-2.411-4.062.049-8.084.996-12.144.896-.461-.011-1.061.065-1.157.515-.034.156.01.317.054.471a106.865 106.865 0 007.038 18.069c.379.76.831 1.575 1.621 1.883.558.217 1.181.136 1.775.062a55.707 55.707 0 0117.936.676zm97.419-390.418c-.929 1.436-1.751 3.005-1.903 4.708-.094 1.045.069 2.094.232 3.13l1.879 11.98c.037.232.079.478.234.654.363.415 1.037.195 1.528-.055 1.983-1.007 3.989-2.029 5.663-3.493 1.342-1.174 2.436-2.603 3.467-4.059 2.153-3.042 4.13-6.436 4.27-10.161.14-3.725-2.146-7.775-5.812-8.447-3.883-.713-7.414 2.429-9.558 5.743zm-168.708 7.908c-1.488 1.303-2.027 3.374-2.274 5.337-.227 1.797-.266 3.669.358 5.37.86 2.346 2.904 4.105 5.165 5.168 2.262 1.064 4.753 1.52 7.212 1.965l3.641.661c.301.054.657.093.869-.127.177-.182.177-.467.165-.72l-.602-13.485c-.085-1.91-1.45-3.592-3.133-4.499-1.683-.907-3.642-1.151-5.552-1.199-2.064-.053-4.297.168-5.849 1.529zm390.13 76.919c-.893-.976-2.211-1.423-3.478-1.802-1.342-.402-2.792-.77-4.123-.331-1.511.497-2.511 1.91-3.309 3.287a36.655 36.655 0 00-2.982 6.561c-.275.807-.524 1.655-.41 2.499.115.845.691 1.684 1.528 1.841 3.419.641 6.405 3.217 7.541 6.505l4.764-9.983c.657-1.376 1.322-2.778 1.548-4.286.225-1.509-.049-3.167-1.079-4.291zm11.9 6.968c-1.626-1.529-4.332-1.422-6.212-.218-1.88 1.203-3.051 3.261-3.808 5.36a20.903 20.903 0 00-1.23 7.485c.012.607.056 1.234.336 1.773.675 1.299 2.457 1.59 3.877 1.231 3.103-.783 5.17-3.666 6.704-6.474.79-1.447 1.525-2.966 1.731-4.602.205-1.636-.197-3.426-1.398-4.555zM323.789 628.413l-2.29-13.237c-.088-.514-.207-1.078-.626-1.389-.274-.204-.629-.258-.968-.302a48.486 48.486 0 00-11.868-.076 94.537 94.537 0 0015.752 15.004z" fill="#00160A"/><path d="M97.932 198.218a51.95 51.95 0 00-5.913 24.325c-3.26-6.423-7.165-13.064-14.693-15.011-6.306-1.686-13.608 1.778-14.461 8.589-1.022 8.183 6.347 15.328 11.875 20.371 6.475 5.958 13.96 10.742 21.631 15.055 3.928 2.199 7.898 4.231 11.884 6.308-.881 2.79-1.724 5.969-.041 8.481 1.321 1.938 3.987 2.782 5.927 1.068 1.94-1.714 1.89-4.669.614-6.624-1.117-1.659-2.861-2.788-4.708-3.779.1-.288.171-.516.271-.804a136.9 136.9 0 012.355-7.055c1.631-4.676 3.43-9.312 5.045-14.032 2.875-8.303 5.287-16.891 5.67-25.698.278-6.703-.034-16.718-6.512-20.71-7.837-4.908-15.586 3.103-18.944 9.516zm15.863 63.869c.606 1.241.687 2.874-.354 3.959-1.755 1.798-3.956-.022-4.468-1.851s-.008-3.827.589-5.707c1.709.89 3.421 1.93 4.233 3.599zm8.106-57.324a56.107 56.107 0 01-.915 12.982c-1.542 8.724-4.614 17.049-7.686 25.373-1.592 4.359-3.214 8.779-4.576 13.206-1.062-.521-2.09-.953-3.045-1.462a264.657 264.657 0 01-11.147-5.971c-7.519-4.318-14.793-9.23-21.013-15.331-3.593-3.53-7.576-7.573-9.1-12.461-1.603-5.111.393-10.474 5.768-12.329 10.162-3.497 17.555 6.813 21.803 14.539l.088 1.934c.066.883 1.369.66 1.336-.134-.263-8.471 1.211-16.818 4.904-24.563 1.832-3.841 4.205-8.03 8.066-10.242 4.281-2.465 9.405-1.912 12.28 2.182 2.45 3.493 3.054 8.11 3.237 12.277zM620.044 94.033a51.943 51.943 0 00-20.166 14.833c1.63-7.016 2.909-14.614-1.607-20.944-3.746-5.344-11.567-7.385-16.599-2.715-6.042 5.611-4.989 15.821-3.997 23.237 1.131 8.727 3.789 17.203 6.893 25.438 1.596 4.209 3.331 8.318 5.05 12.471-2.469 1.571-5.158 3.464-5.483 6.47-.234 2.334 1.265 4.694 3.853 4.628 2.588-.066 4.449-2.362 4.728-4.679.212-1.989-.399-3.975-1.177-5.921.262-.157.462-.286.724-.442a137.32 137.32 0 016.339-3.891c4.255-2.534 8.613-4.928 12.884-7.506 7.54-4.513 14.907-9.541 20.863-16.041 4.521-4.956 10.719-12.829 8.323-20.05-2.849-8.798-13.934-7.643-20.628-4.888zm-28.903 59.123c-.334 1.34-1.321 2.644-2.816 2.805-2.5.249-3.016-2.559-2.233-4.29.784-1.73 2.454-2.937 4.12-3.993.737 1.78 1.379 3.677.929 5.478zm43.057-38.703a56.152 56.152 0 01-9.046 9.357c-6.789 5.692-14.493 10.094-22.197 14.497-4.022 2.315-8.105 4.659-11.995 7.174-.478-1.081-.988-2.073-1.392-3.077a263.852 263.852 0 01-4.701-11.739c-2.984-8.141-5.4-16.579-6.243-25.251-.482-5.014-.936-10.672 1.04-15.395 2.057-4.946 7.033-7.77 12.343-5.737 10.032 3.853 9.068 16.503 7.356 25.152l-1.175 1.538c-.518.719.624 1.386 1.109.756 5.244-6.658 11.738-12.105 19.546-15.663 3.872-1.766 8.382-3.45 12.762-2.662 4.864.863 8.433 4.581 8.004 9.565-.368 4.25-2.874 8.176-5.411 11.485z" fill="#FFB61D"/></svg>