<svg width="347" height="369" fill="none" xmlns="http://www.w3.org/2000/svg"><g filter="url(#filter0_d)"><path d="M60 175.415C60 112.778 110.778 62 173.415 62c62.637 0 113.415 50.778 113.415 113.415 0 62.637-50.778 113.415-113.415 113.415C110.778 288.83 60 238.052 60 175.415z" fill="url(#paint0_linear)" fill-opacity=".5"/></g><path d="M277.125 175.452c0 50.219-36.089 92.007-83.744 100.842a103.301 103.301 0 01-18.815 1.725c-4.86 0-9.644-.336-14.321-.992a102.658 102.658 0 01-17.319-3.975 102.522 102.522 0 01-36.989-21.371C85.1 232.904 72 205.704 72 175.452c0-45.297 29.367-83.736 70.102-97.317h.007a99.454 99.454 0 014.494-1.38 98.03 98.03 0 017.653-1.847l.038-.008a102.113 102.113 0 0115.382-1.892h.007c.26-.015.504-.023.756-.03.137-.008.274-.015.404-.015.481-.023.961-.031 1.442-.046 0 0 0 .007.008 0 .755-.016 1.51-.023 2.273-.023 11.704 0 22.943 1.96 33.418 5.57a98.04 98.04 0 013.266 1.182v.008a101.827 101.827 0 0117.892 8.95 102.853 102.853 0 0116.083 12.52 103.023 103.023 0 0122.134 30.58v.007a101.631 101.631 0 015.478 14.306 101.666 101.666 0 014.051 22.424c.107 1.556.176 3.128.214 4.707.015.763.023 1.534.023 2.304z" fill="url(#paint1_linear)"/><path d="M152.249 245.264l-2.899 8.637-6.432 19.151a102.522 102.522 0 01-36.989-21.371c.191-3.815.328-7.096.427-9.682.153-4.044.206-6.379.206-6.379l45.687 9.644zM193.381 276.294a103.301 103.301 0 01-18.815 1.725c-4.86 0-9.644-.336-14.321-.992a8055.952 8055.952 0 00-3.418-32.526l36.554-6.851c-.145.374-.229 2.174-.275 5.089-.099 6.683.023 19.196.275 33.555z" fill="#202592"/><path d="M146.664 75.663s-18.906 8.538-26.521 25.865c-7.614 17.327 10.14 47.907 2.549 64.883-22.89 51.226-28.566 68.339-21.394 72.765 16.427 10.132 61.877 26.46 93.288 2.472 2.663-2.282 3.808-76.259 3.808-76.259s25.895 5.241 30.457.862c0 0-16.564-6.089-11.993-14.092-.763-.954-18.846-3.044-19.8-7.042-.953-3.998 7.928-56.65-26.597-71.826l-23.797 2.372z" fill="#6A3BF1"/><path d="M175.924 44.794s1.999 8.186 6.569 7.523c4.57-.664 6.089 7.522 3.044 9.613-3.044 2.09-7.805 1.053-7.805 4.479 0 3.425-6.76 9.994-8.759 4.562-1.991-5.425 6.951-26.177 6.951-26.177z" fill="#202592"/><path d="M177.732 55.452c.092 7.233-4.753 9.522-7.232 10.758a.527.527 0 00-.214.199c-.588.831-.107 3.6.183 6.89.549 6.278-6.326 17.201-6.326 17.201l-17.631-12.296.572-9.522-14.657-16.938s13.329-25.803 23.134-29.038c9.804-3.235 22.179 3.807 22.179 3.807s-.099 21.706-.008 28.94z" fill="url(#paint2_linear)"/><path d="M170.469 73.298c-3.09-1.083-7.431-3.212-8.629-6.89h8.446c-.58.832-.099 3.602.183 6.89z" fill="#FCC7C7"/><path d="M161.329 44.794h-.161a.631.631 0 01-.633-.634v-2.57c0-.352.282-.634.633-.634h.161c.35 0 .633.282.633.633v2.571a.628.628 0 01-.633.634zM173.132 45.8h-.161a.631.631 0 01-.633-.633V42.23c0-.351.282-.633.633-.633h.161c.351 0 .633.282.633.633v2.937a.626.626 0 01-.633.634zM166.669 41.59s4.624 4.05 4.609 5.294c-.016 1.244-2.152 4.89-2.152 4.89l-.771-.518s2.381-3.578 2.16-4.326c-.42-1.42-4.418-4.845-4.418-4.845l.572-.496z" fill="#202592"/><path d="M147.084 44.794s1.472 8.423 5.524 7.713c4.043-.717-1.374-8.377.786-9.949 2.159-1.572 2.449-4.28 1.449-5.47-.999-1.19-1.045-6.188 2.144-7.523s-.221 3.334 4.982 2.044c5.204-1.281 6.867-1.426 8.584.664 1.716 2.09 4.761 1.045 4.997-.091.237-1.137 4.471 3.952 4.471 3.952s2.472-7.76-1.045-10.04c-3.525-2.282-24.179-11.995-36.081-2.717 0 0-5.661 12.566 4.189 21.417z" fill="#202592"/><path d="M158.628 38.156s-.664-3.19 2.952-3.167l.389-.831s-2.319-.618-3.555 1c-1.236 1.617-.595 2.998-.595 2.998h.809zM173.498 36.096s1.266-1.84 2.968-.038l.595-.206s-.794-1.442-2.182-1.29c-1.389.153-1.77 1.13-1.77 1.13l.389.404zM142.323 47.993l-.688.746 3.99 3.676.687-.746-3.989-3.676z" fill="#202592"/><path d="M177.412 50.676c-.099-1.007-3.388-3.945-7.126-4.639-8.683-1.373-16.595 5.196-16.595 5.196l-8.118-9.82-.252 1.145 7.485 9.118-.458 1.144c2.06 3.159 1.832 7.134 1.419 9.545-1.617-1.213-7.568-5.608-8.072-5.059-.564.626 2.938 3.25 7.836 6.219-.153.633-.275 1.007-.275 1.007s7.104 8.782 17.839 6.348c10.735-2.442 6.416-19.19 6.317-20.204z" fill="#fff"/><path d="M157.453 55.185c2.121-.404 10.3-1.823 17.937-1.327a.484.484 0 00.511-.412.491.491 0 00-.419-.557c-1.763-.206-8.179-.71-18.212 1.335a.483.483 0 00-.389.519c.022.29.282.496.572.442zM156.896 52.149c1.854-1 9.712-4.807 17.579-2.144a.462.462 0 00.503-.138.457.457 0 00-.16-.717c-1.35-.625-5.135-2.03-9.842-.87-4.67 1.152-7.523 2.526-8.523 3.052a.458.458 0 00-.19.626.468.468 0 00.633.19zM163.567 63.316c1.868-.16 3.246-1.886 3.078-3.855-.168-1.97-1.819-3.436-3.688-3.276-1.868.16-3.246 1.885-3.078 3.855.168 1.969 1.82 3.435 3.688 3.276z" fill="#ECECEC"/><path d="M166.009 61.312c.117-.552-.159-1.079-.616-1.176-.458-.097-.924.272-1.041.824-.117.553.159 1.08.616 1.176.458.097.924-.272 1.041-.824zM164.976 59.242c.286-.145.376-.542.201-.889-.175-.345-.549-.509-.835-.364-.285.145-.375.542-.2.888s.549.51.834.365z" fill="#F0F2F4"/><path d="M157.682 62.945c2.449 1.22 12.604 5.852 17.578 1.068a.497.497 0 01.725.046l.077.091a.493.493 0 01-.069.71c-1.518 1.22-7.622 5.05-18.769-1.023a.509.509 0 01-.244-.58.497.497 0 01.702-.312zM168.745 60.007c1.19.16 4.425.405 7.21-1.144.206-.115.465 0 .541.221l.031.092a.387.387 0 01-.183.45c-.832.45-3.556 1.663-7.691 1.144a.391.391 0 01-.336-.35.386.386 0 01.428-.413z" fill="#ECECEC"/><path d="M131.946 45.618s-11.421 1.014-8.881 8.507c2.541 7.492 6.982 1.526 8.248 6.088 1.267 4.57 0 12.696 8.759 10.155 8.759-2.54 3.556 3.426 8.629 1.397 5.074-2.03 4.7-3.426 5.333-5.456.634-2.03-5.455-4.7-5.714-6.851-.252-2.16-11.109-4.822-9.934-11.551.793-4.06 2.449-5.074 2.449-5.074s2.03 4.867 7.874 3.853c0 0-9.903-13.505 4.692-20.478C167.997 19.234 177.5 30 177.5 30v11s8.137-2.104 6.359-8.956c-1.778-6.851-8.629-8.125-7.363-11.932 1.267-3.808-7.614-15.481-18.021-11.17-10.407 4.31-10.407-3.808-18.021 2.662-7.615 6.47-13.329 6.982-11.3 15.61 2.037 8.63-8.629 11.17 2.792 18.404z" fill="#202592"/><path d="M257.062 172.16c22.209-7.594 30.399-42.45 18.293-77.852-12.105-35.402-39.922-57.945-62.131-50.35-22.209 7.593-30.399 42.448-18.293 77.851 12.105 35.402 39.922 57.945 62.131 50.351z" fill="#FFC571"/><path d="M279.052 93.037c12.111 35.398 3.914 70.249-18.283 77.846-10.703 3.662-22.703.32-33.621-8.084-11.75-9.037-22.242-23.919-28.517-42.261-12.104-35.4-3.914-70.25 18.29-77.848 8.664-2.96 18.188-1.336 27.288 3.856 14.244 8.1 27.463 24.91 34.843 46.49z" fill="#FFEFD8"/><path d="M279.052 93.037c12.111 35.398 3.914 70.249-18.283 77.846-10.703 3.662-22.703.32-33.621-8.084 52.238-41.651 34.813-89.007 17.067-116.262 14.238 8.11 27.457 24.918 34.837 46.5z" fill="#fff" fill-opacity=".15"/><path d="M253.727 147.615c14.413-4.928 20.005-26.743 12.488-48.725-7.516-21.981-25.294-35.805-39.707-30.876-14.414 4.928-20.005 26.743-12.489 48.725 7.516 21.981 25.294 35.805 39.708 30.876z" fill="#FEFEFE"/><path d="M232.701 96.666l-1.327-6.865a3.022 3.022 0 012.237-3.507l5.252-1.3a3.02 3.02 0 013.664 2.24l1.507 6.41a3.022 3.022 0 003.508 2.275l3.125-.602a3.018 3.018 0 013.502 2.246l2.742 11.168a3.022 3.022 0 01-2.19 3.645l-2.368.596a3.016 3.016 0 00-2.197 3.616l1.641 7.005a3.017 3.017 0 01-2.271 3.632l-6.491 1.462a3.025 3.025 0 01-3.591-2.194l-1.873-7.344a3.015 3.015 0 00-3.592-2.194l-1.918.44a3.017 3.017 0 01-3.61-2.276l-2.427-10.669a3.022 3.022 0 012.083-3.566l2.514-.746a3.035 3.035 0 002.08-3.472z" fill="#FFEFD8"/><path d="M214.141 114.369c-.053.458-.137.931-.251 1.396a12.36 12.36 0 01-.519 1.686 14.07 14.07 0 01-.611 1.389c-1.617 3.166-4.234 13.154-16.716 16.442l-8.637-9.835s1.663-8.644 4.578-11.772c2.914-3.129 4.089-6.394 6.218-5.273 2.129 1.122.404 5.761.404 5.761s12.383-6.783 14.359-4.753c.534.549.885 1.266 1.076 2.083.206.877.229 1.861.099 2.876z" fill="#FFD5D5"/><path d="M214.141 114.369c-5.028 1.32-8.56 1.503-8.56 1.503 2.739-1.061 6.577-3.266 8.454-4.379.213.877.236 1.861.106 2.876zM213.89 115.765a12.36 12.36 0 01-.519 1.686c-5.188 1.954-6.264 5.715-6.264 5.715-.252-4.448 3.906-6.508 6.783-7.401z" fill="#FCC7C7"/><path d="M192.839 147.131c1.32 2.472.954 22.073-28.283 33.655-12.833 6.019-15.679-7.684-15.679-7.684l43.962-25.971z" fill="#5C2AEB"/><path d="M146.382 116.803s1.587 30.046 20.714 18.784c19.128-11.261 20.097-19.25 28.299-11.093 8.202 8.156 5.036 14.679 5.036 14.679s-14.008 39.911-51.753 40.453l-2.296-62.823z" fill="#6A3BF1"/><path fill-rule="evenodd" clip-rule="evenodd" d="M269.702 11.63a18.045 18.045 0 019.895 4.638c.87-.619 1.804-1.564 2.76-2.976 0 0 1.427-1.686 3.349.458 1.923 2.144 1 4.646-.717 5.196-.654.209-1.43.718-2.076 1.418a18.023 18.023 0 012.501 10.012c1.041.695 2.61 1.256 4.977 1.388 0 0 2.174.358 1.327 3.113-.854 2.754-3.479 3.242-4.829 2.052-.565-.498-1.518-.937-2.563-1.104a18.161 18.161 0 01-10.034 10.473c.099.93.365 2.016.87 3.281 0 0 .595 2.129-2.266 2.518-2.861.389-4.41-1.786-3.899-3.51.085-.286.135-.624.148-.99-.598.06-1.205.09-1.819.09-2.762 0-5.38-.619-7.722-1.725-.374.282-.72.613-1.006 1-.389.526-.962.732-1.587.732-2.075.016-3.594-2.19-2.396-3.372.314-.31.626-.654.901-1.017a18.162 18.162 0 01-4.812-6.535c-1.057.046-2.305.268-3.482.891-.71.374-1.35.359-1.915.13-1.854-.77-1.686-3.517.191-4.242 1.396-.537 2.954-1.338 3.787-2.429a18.644 18.644 0 01-.064-1.539c0-3.235.849-6.272 2.336-8.9-.72-.705-1.72-1.42-3.099-2.102 0 0-1.862-1.182 0-3.387 1.862-2.197 4.471-1.625 5.249 0 .21.439.579.918 1.054 1.354a18.063 18.063 0 018.854-4.69c.65-1.023 1.46-2.686 1.46-4.614 0-.801.313-1.366.786-1.755 1.549-1.282 3.899.152 3.655 2.151-.157 1.302-.193 2.803.186 3.993z" fill="url(#paint3_linear)"/><path d="M252.245 17.544c.42-.596.345-1.372-.168-1.734-.513-.362-1.269-.173-1.69.422-.42.596-.345 1.372.168 1.734.512.363 1.269.173 1.69-.422zM286.047 16.174c.3-.27.039-1.048-.582-1.736-.622-.688-1.369-1.026-1.669-.754-.3.27-.04 1.048.582 1.736s1.369 1.025 1.669.754zM290.358 34.925c.153-.713-.046-1.36-.446-1.446-.4-.087-.848.421-1.001 1.134-.154.713.045 1.36.445 1.446.4.086.848-.421 1.002-1.134zM272.689 51.303c.711-.162 1.234-.53 1.167-.82-.066-.293-.696-.398-1.407-.237-.711.162-1.233.529-1.167.82.066.292.696.398 1.407.237zM267.326 7.493c.729 0 1.32-.256 1.32-.572 0-.316-.591-.572-1.32-.572-.729 0-1.32.256-1.32.572 0 .316.591.572 1.32.572zM275.391 37.54a3.441 3.441 0 100-6.883 3.441 3.441 0 000 6.882zM272.493 24.301c.442-.515.09-1.542-.787-2.293-.876-.752-1.944-.944-2.386-.43-.442.516-.089 1.543.787 2.294.876.752 1.945.944 2.386.43zM262.559 27.115c.442-.515.445-1.237.007-1.613-.438-.376-1.152-.263-1.593.252-.442.515-.445 1.237-.007 1.613.438.375 1.152.263 1.593-.252zM263.608 38.775c1.049-1.221.952-3.024-.216-4.025-1.167-1.002-2.963-.823-4.011.399-1.048 1.221-.951 3.024.216 4.025 1.167 1.002 2.963.823 4.011-.399zM246.483 36.989c.28-.148.23-.79-.111-1.434-.341-.645-.844-1.047-1.123-.9-.28.149-.23.79.111 1.435.341.644.844 1.047 1.123.899zM257.569 46.661c.124-.225-.339-.717-1.033-1.099s-1.357-.509-1.481-.283c-.124.225.339.717 1.033 1.099.694.381 1.357.508 1.481.283z" fill="#fff"/><path d="M325.867 37.2c-.48-1.236-1.373-.748-1.373-.748-.694.489-1.282.748-1.785.863a6.23 6.23 0 00-3.991-2.747c.031-.282.1-.542.199-.733.366-.694-.115-1.754-1.374-1.83-1.258-.077-1.182.884-1.182.884.122.656.13 1.183.076 1.618a6.273 6.273 0 00-3.502 1.755c-.359-.191-.679-.52-.946-.855-.488-.61-1.587-.015-1.686.946-.031.298.038.565.259.779.496.457.733 1.136.84 1.655a5.804 5.804 0 00-.26 1.717c0 .557.084 1.09.229 1.602-.381.214-.794.32-1.099.313-.831-.03-1.617 1-1.114 2.35.504 1.343 1.381.786 1.381.786.87-.702 1.587-.985 2.16-1.053a6.297 6.297 0 004.699 2.083 6.4 6.4 0 001.885-.283c.069.252.099.489.084.687-.061.824.854 1.656 2.098 1.198 1.244-.458.771-1.358.771-1.358-.443-.656-.679-1.213-.794-1.694 1.351-1.114 2.205-2.777 2.205-4.631 0-.313-.03-.61-.076-.908.397-.198.816-.298 1.137-.282.839.06 1.648-.87 1.159-2.114z" fill="url(#paint4_linear)"/><path d="M325.603 38.134c.162-.08.173-.39.024-.692-.15-.303-.402-.483-.565-.402-.162.08-.173.39-.024.692.149.302.402.482.565.402zM310.054 45.046c.213-.066.278-.471.144-.906-.134-.435-.415-.735-.629-.669-.213.066-.278.472-.144.906.134.435.415.735.629.67zM321.358 47.871c.427-.2.707-.504.625-.68-.082-.175-.495-.156-.923.045-.427.2-.707.504-.625.68.083.175.496.155.923-.045zM318.404 32.676c.01-.177-.331-.338-.76-.361-.429-.023-.784.102-.794.279-.009.177.331.338.76.361.43.023.785-.102.794-.279zM319.764 42.922a1.55 1.55 0 100-3.098 1.55 1.55 0 000 3.098zM317.406 38.864a.588.588 0 100-1.176.588.588 0 000 1.175zM315.448 42.456c.452-.262.49-1.044.083-1.749-.407-.704-1.103-1.063-1.556-.802-.452.261-.489 1.044-.083 1.748.407.705 1.103 1.064 1.556.803zM311.227 36.24c.262-.263.407-.543.324-.626-.084-.084-.364.061-.626.323-.262.263-.407.543-.324.626.084.084.364-.061.626-.324z" fill="#fff"/><path d="M299.852 57.183c-.919-.216-.992.505-.992.505.006.604-.078 1.054-.214 1.396a4.437 4.437 0 00-3.221 1.236 1.51 1.51 0 01-.35-.412c-.26-.495-1.077-.64-1.629.069-.552.708.043 1.051.043 1.051.435.193.747.4.981.607a4.462 4.462 0 00-.381 2.764c-.257.134-.579.19-.883.211-.556.041-.649.926-.124 1.372.162.138.347.205.561.161.469-.107.963.028 1.311.174.25.318.554.605.903.845.327.224.675.39 1.033.511-.028.31-.131.595-.259.771-.353.477-.065 1.353.931 1.602.992.245 1.019-.495 1.019-.495-.062-.793.061-1.328.251-1.692a4.487 4.487 0 003.118-1.92c.264-.386.461-.798.594-1.221.175.061.326.139.437.227.459.368 1.317.166 1.549-.749.232-.915-.487-1-.487-1-.564-.004-.986-.09-1.315-.216a4.264 4.264 0 00-1.831-3.162 4.132 4.132 0 00-.564-.321c.044-.313.155-.6.293-.782.374-.468.153-1.318-.774-1.532z" fill="url(#paint5_linear)"/><path d="M300.294 57.715c.018-.128-.159-.26-.397-.294-.238-.034-.445.042-.464.17-.018.127.16.259.397.293.238.034.446-.042.464-.17zM298.086 69.632c.048-.152-.165-.354-.474-.45-.309-.097-.599-.053-.646.1-.047.151.165.353.474.45.309.096.599.052.646-.1zM304.301 64.132c.055-.332-.011-.619-.147-.642-.136-.022-.291.229-.346.56-.055.332.011.62.148.642.136.022.291-.229.345-.56zM294.187 59.742c-.1-.077-.332.058-.518.3-.186.244-.256.503-.156.58.1.076.332-.058.518-.301.187-.243.256-.502.156-.579zM300.753 63.073a1.103 1.103 0 10-1.82-1.247 1.103 1.103 0 001.82 1.247zM297.419 62.822a.419.419 0 10-.692-.473.419.419 0 00.692.473zM298.739 65.42c.029-.371-.416-.709-.993-.754-.578-.045-1.069.22-1.098.59-.029.372.415.709.993.754.577.045 1.069-.22 1.098-.59zM293.387 65.393c-.048-.26-.154-.457-.237-.442-.082.015-.11.238-.062.498s.155.457.237.442c.083-.015.111-.238.062-.498z" fill="#fff"/><defs><linearGradient id="paint0_linear" x1="173.764" y1="77.554" x2="173.764" y2="273.276" gradientUnits="userSpaceOnUse"><stop stop-color="#fff"/><stop offset="1" stop-color="#fff" stop-opacity=".7"/></linearGradient><linearGradient id="paint1_linear" x1="175" y1="203.5" x2="130.5" y2="263" gradientUnits="userSpaceOnUse"><stop stop-color="#fff"/><stop offset="1" stop-color="#FFEFD8"/></linearGradient><linearGradient id="paint2_linear" x1="157.143" y1="70.5" x2="155.143" y2="96" gradientUnits="userSpaceOnUse"><stop stop-color="#FFD5D5"/><stop offset="1" stop-color="#FFBEBE"/></linearGradient><linearGradient id="paint3_linear" x1="265" y1="36" x2="275" y2="22.5" gradientUnits="userSpaceOnUse"><stop stop-color="#C23BF1"/><stop offset="1" stop-color="#6A3BF1"/></linearGradient><linearGradient id="paint4_linear" x1="316.635" y1="28.02" x2="318.322" y2="52.601" gradientUnits="userSpaceOnUse"><stop stop-color="#6A3BF1"/><stop offset="1" stop-color="#FFEFD8"/></linearGradient><linearGradient id="paint5_linear" x1="290.74" y1="58.904" x2="305.855" y2="67.821" gradientUnits="userSpaceOnUse"><stop stop-color="#6A3BF1"/><stop offset="1" stop-color="#FFEFD8"/></linearGradient><filter id="filter0_d" x="0" y="22" width="346.83" height="346.83" filterUnits="userSpaceOnUse" color-interpolation-filters="sRGB"><feFlood flood-opacity="0" result="BackgroundImageFix"/><feColorMatrix in="SourceAlpha" values="0 0 0 0 0 0 0 0 0 0 0 0 0 0 0 0 0 0 127 0"/><feOffset dy="20"/><feGaussianBlur stdDeviation="30"/><feColorMatrix values="0 0 0 0 0.793333 0 0 0 0 0.793333 0 0 0 0 0.933333 0 0 0 0.5 0"/><feBlend in2="BackgroundImageFix" result="effect1_dropShadow"/><feBlend in="SourceGraphic" in2="effect1_dropShadow" result="shape"/></filter></defs></svg>