<svg width="347" height="362" fill="none" xmlns="http://www.w3.org/2000/svg"><g filter="url(#filter0_d)"><path d="M60 168.415C60 105.778 110.778 55 173.415 55c62.637 0 113.415 50.778 113.415 113.415 0 62.637-50.778 113.415-113.415 113.415C110.778 281.83 60 231.052 60 168.415z" fill="url(#paint0_linear)" fill-opacity=".5"/></g><path d="M276.125 168.559c0 50.218-36.089 92.006-83.744 100.841a103.213 103.213 0 01-18.815 1.725c-4.86 0-9.644-.336-14.321-.992a102.658 102.658 0 01-17.319-3.975 102.522 102.522 0 01-36.989-21.371C84.1 226.01 71 198.81 71 168.559c0-45.298 29.367-83.736 70.102-97.317h.007a99.454 99.454 0 014.494-1.381 98.03 98.03 0 017.653-1.847l.038-.007a102.113 102.113 0 0115.382-1.893h.007c.26-.015.504-.022.756-.03.137-.008.274-.015.404-.015.481-.023.961-.03 1.442-.046 0 0 0 .008.008 0 .755-.015 1.51-.023 2.273-.023 11.704 0 22.943 1.96 33.418 5.57a98.04 98.04 0 013.266 1.182v.008a101.827 101.827 0 0117.892 8.95 102.87 102.87 0 0116.083 12.52 103.025 103.025 0 0122.134 30.58v.007a101.678 101.678 0 015.478 14.306 101.666 101.666 0 014.051 22.424c.107 1.556.176 3.128.214 4.707.015.763.023 1.534.023 2.305z" fill="url(#paint1_linear)"/><path d="M261.452 68.209s-8.827-11.491 0-16.966c8.827-5.475 6.319 2.967 9.942-.926 3.614-3.894 2.229-7.516 8.163-4.082s7.606 3.156 10.024.467c2.41-2.688 7.426-.09 6.122 4.549 0 0 7.983-4.45 7.705 5.295 0 0 4.172-2.418 6.491 6.581 2.32 9 10.303 18.745 5.385 28.482-4.918 9.745-12.622 15.121-20.785 19.113 0 0 14.941 7.704 7.048 21.621-7.884 13.917-22.178 8.073-22.178 8.073s-13.45-16.048 1.573-34.792l-19.49-37.415zM234.126 118.697l47.193 28.571-47.931 43.423-7.983-11.007 8.721-60.987z" fill="#202592"/><path d="M231.216 109.542s-2.229 11.999 11.385 25.604c13.605 13.614 39.833 6.803 39.833 6.803-12.245-17.064 0-36.12 0-36.12s14.228-1.861 13.36-7.065c-.861-5.213-11.745-4.557-11.745-4.557l15.211-13.36-15.211-22.646c-19.802-.983-30.195 20.286-37.735 29.326-7.549 9.024 5.811 18.794 5.811 18.794-.14.262-.295.508-.451.745-1.754 2.689-4.336 4.008-7.065 4.558-6.278 1.254-13.384-1.591-13.384-1.591" fill="#FFD5D5"/><path d="M262.485 111.181c-.451 0-14.786 8.794-17.884.443 2.737-.55 5.311-1.877 7.065-4.558 2.204 1.377 5.696 3.041 10.819 4.115z" fill="#FCC7C7"/><path d="M270.599 85.61a.857.857 0 001.139-.116l2.016-2.245a.852.852 0 00-.082-1.222l-.049-.04a.85.85 0 00-1.188.098l-1.967 2.287a.835.835 0 00.131 1.237zM259.96 76.684a.844.844 0 001.139 0l2.23-2.033a.852.852 0 00.033-1.221l-.05-.05a.85.85 0 00-1.196-.024l-2.18 2.082a.852.852 0 00.024 1.246zM259.96 86.043a.48.48 0 00.336-.549c-.205-.95-.557-3.196.459-3.81 1.099-.665 5.492-2.812 6.844-3.476a.463.463 0 00.229-.606l-.024-.066a.478.478 0 00-.598-.279c-1.697.558-7.811 2.697-7.967 4.631-.123 1.54.008 2.992.098 3.754a.491.491 0 00.623.401zM285.507 76.364l-2.663-4.992a.704.704 0 01.27-.942.71.71 0 01.967.262l2.779 4.918a.7.7 0 01-.238.942l-.115.074a.7.7 0 01-1-.262zM271.246 60.316l5.221.344c.352.025.623.32.615.664a.64.64 0 01-.672.623l-5.221-.221a.66.66 0 01-.631-.64v-.123c0-.368.311-.672.688-.647z" fill="#6F7FAF"/><path d="M283.639 99.69l7.614.189a.663.663 0 01-.008 1.327l-7.615.107a.663.663 0 01-.672-.664v-.287c0-.377.304-.68.681-.672z" fill="#FCC7C7"/><path d="M279.278 56.16s-3.155 8.352 5.008 12.065c8.163 3.713 2.131 19.753 4.729 19.105l-7.327 6.877s4.918.68 7.327-.96c2.41-1.638 15.311-10.638 15.311-10.638s-12.245-27.932-25.048-26.448z" fill="#202592"/><path d="M110.153 25.99L84.076 250.002c-.72 6.211 3.744 11.818 9.965 12.52l110.298 12.405c6.188.694 11.771-3.729 12.491-9.908L242.923 42.5c.719-6.154-3.662-11.736-9.818-12.512L122.799 16.09c-6.238-.784-11.919 3.664-12.646 9.9z" fill="#FFAD47"/><path d="M232.529 40.604l-.91 7.795-24.547 209.64-.705 6.04c-.722 6.196-6.32 10.647-12.524 9.942L83.245 261.563c-6.237-.705-10.713-6.336-9.991-12.573l.688-5.934L98.424 32.433l.975-8.401c.73-6.262 6.426-10.729 12.68-9.942l110.606 13.958c6.172.77 10.565 6.385 9.844 12.556z" fill="url(#paint2_linear)"/><path d="M232.528 40.604l-.91 7.795L98.423 32.433l.975-8.401c.73-6.262 6.426-10.729 12.68-9.942l110.606 13.958c6.172.77 10.565 6.385 9.844 12.556z" fill="#FFD095"/><path d="M149.714 31.367a2.615 2.615 0 100-5.23 2.615 2.615 0 000 5.23zM157.452 30.564l24.653 3.049a.608.608 0 00.689-.606.606.606 0 00-.541-.607l-24.654-3.114a.607.607 0 00-.688.606v.066c0 .303.237.565.541.606z" fill="#FFAD47"/><path d="M207.062 258.039l-.704 6.04c-.722 6.196-6.32 10.647-12.524 9.942L83.236 261.563c-6.237-.705-10.713-6.336-9.991-12.573l.688-5.934 133.129 14.983z" fill="#FFD095"/><path d="M235.791 152.653c-.836 7.524-3.803 24.81-2.877 30.219l-9.253 1.303v-10.548s-10.327-17.908-10.418-24.31c-.065-4.458-.27-7.573-.827-10.056a17.401 17.401 0 00-.574-2.025 13.234 13.234 0 00-.361-.909c-.795-1.828-.475-4.451.541-6.688h.008c.23-.509.492-1 .795-1.459.517-.787 1.132-1.476 1.804-1.967 2.36-1.73 7.778.27 11.466 4.466.664.763 1.27 1.59 1.795 2.484l.746-2.377v-.008l2.459-7.918s3.852-.647 3.753 16.802c.017 0 1.771 5.475.943 12.991z" fill="#FFD5D5"/><path d="M210.784 136.541c-.017-.008-.025-.017-.041-.025-.009-.133.008-.099.041.025z" fill="#DDE1E5"/><path d="M221.127 150.801c-.902-4.262-6.155-9.303-8.712-11.548a17.345 17.345 0 00-.574-2.025c12.54 8.303 9.286 13.573 9.286 13.573zM229.249 149.129c-1.852-6-13.064-15.966-17.22-19.49.23-.509.492-1 .795-1.459 17.237 12.335 16.425 20.949 16.425 20.949z" fill="#FCC7C7"/><path d="M227.169 129.164c-.017-.008-.034-.025-.051-.034.06 0 .076.009.051.034z" fill="#DDE1E5"/><path d="M230.544 141.621c-.442-2.311-3.344-8.597-4.442-10.942.664.763 1.27 1.59 1.795 2.484l.746-2.377c2.377 3.819 1.901 10.835 1.901 10.835z" fill="#FCC7C7"/><path d="M221.447 258.735s-8.655-4.95-3.713-24.99c4.95-20.047 5.942-50.479 5.942-50.479l9.721-1.697.172-.033.016.123.312 2.508c0 .008.008.025.008.033l.155 1.295s.025-.025.066-.074c.213-.246.984-1.114 2.18-2.459 7.393-8.269 31.014-34.349 41.194-41.21 1.95-1.311 4.557-1.057 6.18.64 3.983 4.155 11.417 14.023 12.228 30.243 1.123 22.261-29.555 65.815-74.461 86.1z" fill="#6A3BF1"/><path d="M240.306 236.901c1.303-9.647-3.746-38.514-6.18-51.472a464.4 464.4 0 012.18-2.458c9.557 31.53 4 53.93 4 53.93zM247.264 185.962s19.671-15.22 26.72-14.843c.008 0-17.991-2.598-26.72 14.843z" fill="#5223D8"/><path d="M251.018 79.782c.91-1.058 6.901-1.763 11.647.401 10.827 5.287 14.548 18.884 14.548 18.884l4.745-5.114 1.263.393-5.361 5.918-.844.655c-3.713 4.41-7.212 7.557-8.647 10.59 2.771-.09 13.934-6.696 14.065-5.672.147 1.147-6.877 7.688-14.712 7.163-.328.828-.484 1.345-.484 1.345s-14.884 4.278-25.022-6.902c-10.131-11.187 7.892-26.604 8.802-27.661z" fill="#fff"/><path d="M269.886 100.542c-2.066-2.123-10.131-10.146-19.097-15.597a.659.659 0 01-.246-.869.664.664 0 01.91-.286c2.139 1.155 9.745 5.63 19.392 15.818a.684.684 0 01.032.893.665.665 0 01-.991.041zM272.894 97.567c-1.295-2.582-7.131-13.04-18.048-16.228a.63.63 0 01-.459-.55v-.008a.637.637 0 01.746-.688c2.008.36 7.36 1.762 11.736 6.77 4.336 4.959 6.459 8.754 7.172 10.13a.636.636 0 01-.279.853.636.636 0 01-.868-.279zM263.339 104.073c1.739-2.081 1.549-5.104-.424-6.753-1.973-1.648-4.982-1.298-6.72.782-1.739 2.08-1.55 5.104.423 6.752 1.973 1.649 4.982 1.299 6.721-.781z" fill="#ECECEC"/><path d="M257.601 101.603c.302-.712.068-1.494-.523-1.745-.592-.252-1.317.122-1.62.834-.302.713-.068 1.494.523 1.746.592.251 1.317-.123 1.62-.835zM259.455 99.425c.471-.252.685-.77.478-1.158-.207-.387-.757-.496-1.228-.244s-.685.77-.478 1.157c.208.387.757.497 1.228.245z" fill="#fff"/><path d="M263.517 109.074c-3.712-.549-18.752-3.335-20.58-12.621a.673.673 0 00-.844-.517l-.156.041a.68.68 0 00-.484.844c.746 2.566 4.59 11.672 21.884 13.614a.696.696 0 00.729-.459.683.683 0 00-.549-.902zM253.403 97.075c-1.459-.754-5.286-3.024-7.196-6.958-.139-.295-.524-.369-.779-.172l-.098.074a.518.518 0 00-.147.647c.582 1.156 2.68 4.664 7.737 7.335a.526.526 0 00.647-.13.527.527 0 00-.164-.796z" fill="#ECECEC"/><path d="M188.769 117.025l-2.688-3.754a.819.819 0 01.581-1.287l21.909-2.278c.557-.058.983.5.778 1.024l-7.786 20.007a.875.875 0 01-1.508.213l-4.451-5.828-.803.722-1.328-1.738-2.606 2.647.082 2.336-1.869 4.459-7.597 5.795-.443-3.549 1.656-2.615-.533-4.09 2.352-3.688 2.803 1.049.754 1.623.615-.426-1.18-1.803-4.426-1.484-1.779-2.737 7.467-4.598z" fill="#fff"/><path d="M181.015 122.295l1.926 2.59 1.058.442-2.435 3.926s.902 3.705.566 4.107c-.336.401-5.991-.386-5.991-.386l-3.295 2.32-5.033-1.279.05-3.385 13.154-8.335z" fill="#fff"/><path d="M181.442 134.253l-5.353-.639-3.54 2.385-1.213 2.901-1.672 2.418-.189 3.328 1.639-.853 3.779.713 6.229-4.663-.713-4.041 1.033-1.549zM166.91 128.524l.008 5.655-.861.353-1.524-4.59 2.377-1.418z" fill="#fff"/><path d="M167.992 134.589l4.171 1.246-1.45 2.967-1.861 2.459.082 3.778-3.491 1.983-1.828.107-.574 1.172.959.984-.278 4.04-8.008 5.828s-4.787-6.828-8.606-20.638c0 0-2.664 6.368-2.344 7.786l-2.287-.5-1.77-2.032-.967-4.435-10.139-5.368 13.532-6.016.492 2.41 2.049 1.065.582 3.074 2.295.672 3.77-2.951.287-4.163 2.073-1.484.721-4 2.828-1.122a1.981 1.981 0 012.59 1.172l6.418 18.121.745-.393.009-5.762z" fill="#fff"/><path d="M157.706 133.228l.106.041c.156.066.23.254.164.41l-2.483 5.565a.32.32 0 00-.009.23l.91 2.565a.304.304 0 00.492.123l1.475-1.328c.033-.024.066-.049.107-.065l3.303-1.131a.29.29 0 00.18-.172l2.09-5a.307.307 0 01.566.238l-2.172 5.188a.285.285 0 01-.172.164l-2.566 1.024a.308.308 0 00-.09.517l1.246 1.098a.26.26 0 00.188.074l2.992.164a.304.304 0 01.262.426l-.041.098a.315.315 0 01-.311.189l-3.18-.312a.308.308 0 01-.181-.082l-1.713-1.647a.31.31 0 00-.409-.017l-1.697 1.402a.267.267 0 00-.09.123l-.746 1.877a.307.307 0 01-.098.131l-1.467 1.139a.332.332 0 01-.156.066l-3.787.442a.302.302 0 01-.319-.196l-.082-.23a.304.304 0 01.27-.41l3.664-.246a.292.292 0 00.197-.09l1.163-1.164a.375.375 0 00.066-.098l.582-1.385a.28.28 0 000-.23l-1.271-3.163a.307.307 0 010-.238l2.599-5.926a.342.342 0 01.418-.164zM147.551 130.589l2.409-.41a.697.697 0 00.574-.655l.09-2.476 2.025-2.057.926-4.77a1.333 1.333 0 00-.672-1.418l-1.107-.598a1.132 1.132 0 00-.975-.049l-4.41 1.811a3.077 3.077 0 00-1.909 2.926l.098 4.172 2.074.311-.025 2.418c-.033.5.41.877.902.795zM155.911 117.975l1.795-4.278 1.901.008.615 1.131-2.648 3.836-1.663-.697zM142.059 146.49l1.926 2.344 1.131-.771-.139-.909-2.918-.664zM141.969 147.211l1.672 2.549-2.336 1.459.664-4.008zM166.156 150.104l-1.123 6.77 1.401.451 10.491-7.45-1.393-2.517-4.27-.45-5.106 3.196zM162.443 157.333l-1.623 4.557.902.377 1.549-.877.098-3.663-.926-.394zM155.82 169.742l-.614 2.467 1.549 1.213 2.196-2.803-1.163-2.147-1.968 1.27zM128.519 134.368l-9.819 4.245.533 5.869-3.205 1.245-2.04 6.066-14.294 8.097 6.753 11.991 33.858-21.195.861-5.131-1.697-2.049-.557-4.032-10.393-5.106zM193.031 126.04l1.909 1.549.861-.86.631 2.36-.77.205 1.131 1.91-1.672 2.352-2.156.844-.475 1.574-2.115.516 1.221-6.499 1.435-3.951zM193.457 136.941l1.156 1.041-1.287 3.36-2.607-1.958 2.738-2.443zM186.589 143.58l1.336 1.738.041 1.827-2.066.254-.492-2.262 1.181-1.557zM146.026 155.694l4.049 8.024.09 3.655-2.098 3.672-2.492-.295-1.844-7.065 2.295-7.991zM191.498 150.35a.607.607 0 100-1.215.607.607 0 000 1.215zM181.769 157.686a.427.427 0 100-.854.427.427 0 000 .854zM185.876 169.726a.427.427 0 10-.001-.853.427.427 0 00.001.853zM171.655 170.816a.427.427 0 100-.854.427.427 0 000 .854zM175.958 160.546a.427.427 0 100-.853.427.427 0 000 .853zM181.22 167.783a.426.426 0 100-.851.426.426 0 000 .851zM187.252 159.185a.426.426 0 10.002-.852.426.426 0 00-.002.852zM190.654 145.17a.344.344 0 100-.688.344.344 0 000 .688zM187.933 152.178a.344.344 0 100-.688.344.344 0 000 .688z" fill="#fff"/><defs><linearGradient id="paint0_linear" x1="173.764" y1="70.554" x2="173.764" y2="266.276" gradientUnits="userSpaceOnUse"><stop stop-color="#fff"/><stop offset="1" stop-color="#fff" stop-opacity=".7"/></linearGradient><linearGradient id="paint1_linear" x1="133.5" y1="191" x2="118.5" y2="233" gradientUnits="userSpaceOnUse"><stop stop-color="#fff"/><stop offset="1" stop-color="#FFEFD8"/></linearGradient><linearGradient id="paint2_linear" x1="159.5" y1="74" x2="164" y2="229.5" gradientUnits="userSpaceOnUse"><stop stop-color="#FFE0B5" stop-opacity=".72"/><stop offset=".994" stop-color="#F3F3F3" stop-opacity=".63"/></linearGradient><filter id="filter0_d" x="0" y="15" width="346.83" height="346.83" filterUnits="userSpaceOnUse" color-interpolation-filters="sRGB"><feFlood flood-opacity="0" result="BackgroundImageFix"/><feColorMatrix in="SourceAlpha" values="0 0 0 0 0 0 0 0 0 0 0 0 0 0 0 0 0 0 127 0"/><feOffset dy="20"/><feGaussianBlur stdDeviation="30"/><feColorMatrix values="0 0 0 0 0.793333 0 0 0 0 0.793333 0 0 0 0 0.933333 0 0 0 0.5 0"/><feBlend in2="BackgroundImageFix" result="effect1_dropShadow"/><feBlend in="SourceGraphic" in2="effect1_dropShadow" result="shape"/></filter></defs></svg>