<svg width="347" height="369" fill="none" xmlns="http://www.w3.org/2000/svg"><g filter="url(#filter0_d)"><path d="M60 175.415C60 112.778 110.778 62 173.415 62c62.637 0 113.415 50.778 113.415 113.415 0 62.637-50.778 113.415-113.415 113.415C110.778 288.83 60 238.052 60 175.415z" fill="url(#paint0_linear)" fill-opacity=".5"/></g><path d="M276.125 175.559c0 50.218-36.089 92.006-83.744 100.841a103.213 103.213 0 01-18.815 1.725c-4.86 0-9.644-.336-14.321-.992a102.658 102.658 0 01-17.319-3.975 102.522 102.522 0 01-36.989-21.371C84.1 233.01 71 205.81 71 175.559c0-45.298 29.367-83.736 70.102-97.317h.007a99.454 99.454 0 014.494-1.381 98.03 98.03 0 017.653-1.847l.038-.007a102.113 102.113 0 0115.382-1.893h.007c.26-.015.504-.022.756-.03.137-.008.274-.015.404-.015.481-.023.961-.03 1.442-.046 0 0 0 .008.008 0 .755-.015 1.51-.023 2.273-.023 11.704 0 22.943 1.96 33.418 5.57a98.04 98.04 0 013.266 1.182v.008a101.827 101.827 0 0117.892 8.95 102.864 102.864 0 0116.083 12.52 103.023 103.023 0 0122.134 30.58v.007a101.678 101.678 0 015.478 14.306 101.666 101.666 0 014.051 22.424c.107 1.556.176 3.128.214 4.707.015.763.023 1.534.023 2.305z" fill="url(#paint1_linear)"/><path d="M236.132 258.703c-17.925 12.986-39.955 20.645-63.782 20.645-11.683 0-22.936-1.837-33.486-5.246-.235-12.169-.469-23.673-.607-30.547-.089-4.08-.146-6.534-.146-6.534 67.871 12.72 84.257-24.223 89.625-21.268.907.502 1.976 4.048 3.133 9.61 1.66 7.999 3.498 20.151 5.263 33.34z" fill="#202592"/><path d="M132.865 180.818s-4.672 62.931 9.213 65.441c13.246 2.405 60.09 13.067 89.852-22.119a13.208 13.208 0 002.866-11.213c-1.943-9.343-5.181-27.316-3.028-34.449 2.971-9.837 18.589-10.792 18.589-10.792s-12.679-25.139-15.901-31.543c-3.222-6.396-25.325-45.015-42.707-51.573l-33.672-5.886c-.009.008-54.447 66.097-25.212 102.134z" fill="#6A3BF1"/><path d="M148.013 119.667c.121-.486 14.403 2.267 14.403 2.267s-.024 13.011-10.039 12.978c0 0-8.355.227-4.364-15.245z" fill="#5223D8"/><path d="M239.581 155.088s-12.954-.275-17.018-3.911c-1.328-1.19-2.437-2.501-3.328-3.724-1.481-2.04-2.485-4.412-2.777-6.914-.72-6.194-6.129-12.201-6.129-12.201l3.506-3.344c4.332 4.542 8.282-4.785 8.282-4.785l-1.173-1.19-.64-.655a6.09 6.09 0 01-.696.817c-2.292 2.227-4.866.3-4.866.3l2-5.02 5.133-5.125 7.035 10.404c2.421-2 4.113-.348 4.113-.348 10.072 6.396 6.558 35.696 6.558 35.696z" fill="url(#paint2_linear)"/><path d="M231.412 124.719s-3.749 2.583-4.283 6.283c-.526 3.7-1.255 9.999-1.255 9.999s3.619 2.024 5.125-8.574l4.048-3.959s-3.951 5.351-2.251 8.889c.648 1.482 2.445 2.13 2.445 2.13s.737-5.579 1.903-5.514c1.166.065 2.502.024 2.502.024M232.222 150.068s-1.417-5.853 5.448-9.44M224.789 138.952s-2.04-2.502-1.214-7.465c.817-4.963 2.202-8.954 5.335-10.452M217.81 136.289l.429-8.04" stroke="#FCC7C7" stroke-miterlimit="10"/><path d="M223.842 115.927c-.057.145-.745 1.732-1.231 3.084l-.639-.656a6.034 6.034 0 01-.697.818c.494-1.125 1.369-2.672 2.567-3.246z" fill="#FCC7C7"/><path d="M163.798 63s-11.145-7.776-2.531-18L168 51.956 163.798 63zM163.412 46.397s-10.728-16.193-.599-28.094C172.941 6.4 182.252 4.685 191.676 9.51c9.424 4.825 10.76-.388 14.411 4.566 3.651 4.955 7.254 12.031.461 17.253l-3.198 2.697-39.938 12.37z" fill="#202592"/><path d="M182.219 106.292c-9.958-.526-24.151-27.608-24.151-27.608l6.874-28.644 16.354 12.662 7.149 5.53s-.817 7.19 2.769 15.026c.195.413.365.859.518 1.312 2.785 8.145-.081 22.224-9.513 21.722z" fill="url(#paint3_linear)"/><path d="M191.74 84.578c-5.699-2.38-13.893-7.675-12.905-18.176.203-2.17 1.085-3.32 2.469-3.692l7.149 5.53s-.817 7.19 2.769 15.026c.195.413.373.85.518 1.312z" fill="#FCC7C7"/><path d="M203.804 39.215s1.263 31.413-14.209 32.28c-15.472.866-25.762-19.472-25.762-19.472s-4.323-5.262-1.02-9.189c3.303-3.927 8.25-1.182 8.25-1.182s5.805-25.762 20.653-23.171c14.849 2.59 12.8 8.363 12.088 20.734z" fill="url(#paint4_linear)"/><path d="M190.899 63.301l-.057-5.878s-4.963.324-5.117 5.773l5.174.105z" fill="#fff"/><path d="M193.837 43.547s3.563 9.051-.372 10.622l-2.647.907" stroke="#6F7FAF" stroke-miterlimit="10"/><path d="M166.966 65.892s-3.449 3.878-.696 4.583c2.753.696 1.991-3.935 1.991-3.935M170.367 80.716s0 2.267 1.562 2.21c1.563-.056 1.538-3.424 1.538-3.424M178.762 48.939s-2.582 3.125-1.076 3.554c1.505.429 2.315-.915 2.048-2.59" stroke="#fff" stroke-miterlimit="10"/><path d="M165.064 44.858l4.987 4.987a.544.544 0 010 .778.542.542 0 01-.777 0l-4.988-4.988a.544.544 0 010-.777.558.558 0 01.778 0z" fill="#FCC7C7"/><path d="M197.1 42.624l-.057.056a.86.86 0 00.025 1.247l1.846 1.733a.87.87 0 001.214-1.247l-1.797-1.79a.87.87 0 00-1.231 0zM181.418 40.907l.016.081a.878.878 0 001.061.664l2.461-.607a.878.878 0 00.648-1.028.874.874 0 00-1.037-.672l-2.477.526a.869.869 0 00-.672 1.036zM179.88 32.924s.753-3.821 4.72-2.105l.817-.736s-2.258-1.765-4.38-.559c-2.113 1.206-2.056 3.02-2.056 3.02l.899.38zM198.485 32.074s1.627-2.12 3.546.146l.728-.202s-.85-1.774-2.517-1.676c-1.668.097-2.178 1.23-2.178 1.23l.421.502z" fill="#6F7FAF"/><path d="M247.481 114.186s-2.664-1.134-1.53-5.992l2.493-.696-.963 6.688zM228.034 112.081s-8.372-.251-8.023-6.793c.348-6.542-.689-13.812 3.003-16.84 3.692-3.02 4.882-3.433 31.899-7.424 5.773-.575 5.66 9.561 5.66 9.561l-32.539 21.496z" fill="#FF6D6D"/><path d="M247.481 114.186l4.477-7.076s7.91-1.66 8.283-8.647c.372-6.987 1.465-14.492-3.887-15.917-1.214-.065-26.944 2.607-31.299 8.493-4.348 5.885-3.7 22.256 3.999 20.969 7.7-1.296 18.208-3.83 18.208-3.83l.219 6.008z" fill="#fff"/><path d="M239.239 93.46l.17-3.19c.024-.47.372-.867.834-.956l2.388-.445a1.02 1.02 0 011.207 1.06l-.106 2.032a1.022 1.022 0 001.231 1.053l1.805-.372a1.026 1.026 0 011.231 1.052l-.178 3.376a1.025 1.025 0 01-.842.956l-2.324.42a1.02 1.02 0 00-.842.956l-.153 2.963a1.02 1.02 0 01-.778.939l-2.493.607a1.02 1.02 0 01-1.263-1.044l.105-1.992a1.029 1.029 0 00-1.223-1.06l-1.619.324a1.021 1.021 0 01-1.222-1.06l.17-3.272c.024-.47.364-.858.817-.947l2.275-.462a.993.993 0 00.81-.939z" fill="#FF6D6D"/><path d="M177.831 132.03s-15.795 11.294-38.449 10.671l1.498-28.232-5.028 2.858-8.76 32.749 52.431-8.857-1.692-9.189z" fill="#5223D8"/><path d="M187.304 118.679l7.456-17.123a3.506 3.506 0 014.542-1.846l15.828 6.461a2.85 2.85 0 011.571 3.692l-5.951 14.969-12.84 8.218-14.921-6.963 4.315-7.408z" fill="#fff"/><path d="M198.525 106.81a2.097 2.097 0 100-4.194 2.097 2.097 0 000 4.194z" fill="#6A3BF1"/><path d="M184.405 125.593l13.877 1.555s4.858-7.246 14.379-7.141l-1.919 4.817-13.682 7.319-14.136-5.125 1.481-1.425z" fill="#254365"/><path d="M206.978 131.909s.024 0 .056-.009c.243.009 1.118 0 1.887.098.623.089 1.174.242 1.255.518.072.283-.025 1.692-.243 3.376v.008c-.081.607-.187 1.239-.292 1.87-.332 1.87-.793 3.692-1.319 4.445-.13.186-.292.534-.502.988-.251.534-.575 1.23-1.012 2.024-2.526 4.574-8.866 12.314-26.92 10.938 0 0-9.489-3.174-8.04-14.994 0 0 5.975-4.915 5.983-9.141 0-4.226-.494-10.703 9.683-13.836l-3.109 7.399 13.189 5.036s9.238-12.071 17.796-6.574c-1.174-.17-8.412 7.854-8.412 7.854z" fill="url(#paint5_linear)"/><path d="M215.511 124.136c-.04-.024-.081-.056-.121-.073.056 0 .105.033.121.073z" stroke="#ACB4BC" stroke-miterlimit="10"/><path d="M208.921 132.006c-9.853 8.177-12.128 5.27-12.128 5.27 3.594-.607 7.675-3.368 10.241-5.367.243 0 1.118-.009 1.887.097zM209.933 135.9a56.862 56.862 0 01-.292 1.87c-9.521 7.781-11.739 4.955-11.739 4.955 4.623-.777 10.063-5.133 12.031-6.825zM207.82 143.203c-.251.534-.575 1.23-1.012 2.024-3.409 1.554-8.647 3.659-9.611 2.348 0 0 7.028-3.101 10.623-4.372z" fill="#FCC7C7"/><path d="M158.068 78.692s-38.173 8.623-48.042 26.264c-8.914 15.934-45.833 71.579-24.702 94.119 0 0 26.944 32.352 96.321-42.943 0 0-9.311-3.837-8.963-16.208l-42.966 6.712c0-.009 17.479-52.108 28.352-67.944zM255.984 183.7c-4.016 9.634-17.739 16.824-26.28 11.043-5.652-3.837-8.574-23.204-9.902-35.89a322.18 322.18 0 00-.219-2.17c-.51-5.36-.72-9.076-.72-9.076s14.711 6.947 21.957 1.166c-.008 0 19.18 25.292 15.164 34.927z" fill="#6A3BF1"/><path d="M229.453 159.517s-5.538-.648-9.659-.672a322.18 322.18 0 00-.219-2.17c2.405.324 6.072 1.085 9.878 2.842zM223.623 166.155s7.295 5.627 21.488.624c0 0-.867 3.708-13.545 3.7-4.405-.235-7.943-4.324-7.943-4.324z" fill="#5223D8"/><defs><linearGradient id="paint0_linear" x1="173.764" y1="77.554" x2="173.764" y2="273.276" gradientUnits="userSpaceOnUse"><stop stop-color="#fff"/><stop offset="1" stop-color="#fff" stop-opacity=".7"/></linearGradient><linearGradient id="paint1_linear" x1="156.5" y1="200.5" x2="134.143" y2="273.606" gradientUnits="userSpaceOnUse"><stop stop-color="#fff"/><stop offset="1" stop-color="#FFEFD8"/></linearGradient><linearGradient id="paint2_linear" x1="225" y1="143" x2="225" y2="158" gradientUnits="userSpaceOnUse"><stop stop-color="#FFD5D5"/><stop offset="1" stop-color="#FFB2B2"/></linearGradient><linearGradient id="paint3_linear" x1="175.408" y1="50.04" x2="175.408" y2="106.305" gradientUnits="userSpaceOnUse"><stop stop-color="#FFD5D5"/><stop offset="1" stop-color="#FFB5B5"/></linearGradient><linearGradient id="paint4_linear" x1="183" y1="60" x2="192" y2="24.5" gradientUnits="userSpaceOnUse"><stop stop-color="#FFD5D5"/><stop offset="1" stop-color="#FFB3B3"/></linearGradient><linearGradient id="paint5_linear" x1="193.544" y1="118.194" x2="193.544" y2="156.326" gradientUnits="userSpaceOnUse"><stop stop-color="#FFD5D5"/><stop offset="1" stop-color="#FFB3B3"/></linearGradient><filter id="filter0_d" x="0" y="22" width="346.83" height="346.83" filterUnits="userSpaceOnUse" color-interpolation-filters="sRGB"><feFlood flood-opacity="0" result="BackgroundImageFix"/><feColorMatrix in="SourceAlpha" values="0 0 0 0 0 0 0 0 0 0 0 0 0 0 0 0 0 0 127 0"/><feOffset dy="20"/><feGaussianBlur stdDeviation="30"/><feColorMatrix values="0 0 0 0 0.793333 0 0 0 0 0.793333 0 0 0 0 0.933333 0 0 0 0.5 0"/><feBlend in2="BackgroundImageFix" result="effect1_dropShadow"/><feBlend in="SourceGraphic" in2="effect1_dropShadow" result="shape"/></filter></defs></svg>