<svg xmlns="http://www.w3.org/2000/svg" viewBox="0 0 279.923 279.923"><path d="M279.634 279.739L218.5 183.715l-156.658.184-61.553 95.84 140.355.184 138.99-.184z" fill="#4ed5bd"/><path d="M140.302 0C91.998 0 52.838 37.042 52.838 82.739c0 1.82 1.654 26.48 8.086 37.594 21.641 46.94 79.291 98.692 79.379 98.508.079.271 57.974-51.788 79.51-98.771 7.517-15.165 7.955-36.439 7.955-37.331C227.767 37.051 188.607 0 140.302 0zm-.008 122.547c-19.331 0-35.003-15.673-35.003-35.003s15.673-35.003 35.003-35.003 35.003 15.673 35.003 35.003-15.673 35.003-35.003 35.003z" fill="#f4b459"/><path d="M140.294 43.789c-24.161 0-43.754 19.584-43.754 43.754 0 24.179 19.593 43.754 43.754 43.754 24.179 0 43.754-19.584 43.754-43.754 0-24.161-19.576-43.754-43.754-43.754zm0 70.007c-14.5 0-26.253-11.752-26.253-26.253 0-14.491 11.752-26.253 26.253-26.253 14.5 0 26.253 11.761 26.253 26.253-.001 14.501-11.753 26.253-26.253 26.253z" fill="#cca032"/><path d="M201.55 245.059c-10.947 4.892-34.583 8.891-43.903 8.856-8.033-.053-32.448-5.18-43.606-8.856-1.068-.341-31.276-15.191-52.505-17.502-22.087-2.371-26.253 0-26.253 0l-7.543 9.433L.289 279.739l140.355.184 138.99-.184-37.55-58.963c-9.723 5.906-38.618 23.425-40.534 24.283z" fill="#26a6d1"/></svg>